<?xml version="1.0" standalone="no"?>
<!DOCTYPE svg PUBLIC "-//W3C//DTD SVG 1.1//EN" "http://www.w3.org/Graphics/SVG/1.1/DTD/svg11.dtd" >
<svg xmlns="http://www.w3.org/2000/svg">
<metadata></metadata>
<defs>
<font id="ltunivers431_basicregit" horiz-adv-x="1187" >
<font-face units-per-em="2048" ascent="1638" descent="-410" />
<missing-glyph horiz-adv-x="593" />
<glyph horiz-adv-x="0" />
<glyph horiz-adv-x="0" />
<glyph unicode="&#xd;" horiz-adv-x="512" />
<glyph unicode=" "  horiz-adv-x="593" />
<glyph unicode="&#x09;" horiz-adv-x="593" />
<glyph unicode="&#xa0;" horiz-adv-x="593" />
<glyph unicode="!" horiz-adv-x="610" d="M10 0l58 195h202l-55 -195h-205zM139 358l297 1123h219l-368 -1123h-148z" />
<glyph unicode="&#x22;" horiz-adv-x="894" d="M324 1481h161l-26 -553h-109zM639 1481h162l-27 -553h-108z" />
<glyph unicode="#" d="M-2 432l35 137h227l107 338h-215l32 135h228l143 439h152l-142 -439h256l142 439h153l-143 -439h215l-35 -135h-225l-109 -338h215l-35 -137h-225l-141 -432h-152l142 432h-258l-140 -432h-153l141 432h-215zM412 569h258l106 338h-258z" />
<glyph unicode="$" d="M0 336v31.5t2 29.5h188q-6 -31 -6 -51q0 -86 56.5 -145.5t160.5 -75.5l154 561q-39 23 -77 44.5t-77 47.5q-74 51 -123 120t-49 169q0 98 43 176t117 131t174.5 81t214.5 28l53 178h99l-56 -186q145 -16 228.5 -95t83.5 -202q0 -16 -1 -27.5t-5 -36.5h-185q2 10 3 19.5 t1 19.5q0 145 -161 184l-144 -522q51 -33 101.5 -59.5t97.5 -65.5q59 -47 88 -105.5t29 -138.5q0 -123 -47.5 -211t-124 -145t-176 -85t-203.5 -28l-56 -194h-100l57 201q-72 10 -130 32.5t-107 59.5q-59 47 -89 107.5t-34 152.5zM418 1087q0 -53 24.5 -88.5t63.5 -64.5 q25 -18 49.5 -37.5t50.5 -36.5l135 486q-61 -2 -111 -16.5t-91 -41.5q-55 -35 -88 -88t-33 -113zM500 121q49 2 94 17.5t86 39.5q59 35 94 96.5t35 139.5q0 84 -47 133q-27 29 -56.5 50t-62.5 44z" />
<glyph unicode="%" horiz-adv-x="1873" d="M139 991q0 98 34 195.5t95 171.5q55 68 132 105.5t169 37.5q129 0 200 -72.5t71 -189.5q0 -98 -35 -195.5t-96 -175.5q-55 -70 -132 -109.5t-169 -39.5q-131 0 -200 75.5t-69 196.5zM291 991q0 -66 35.5 -107.5t101.5 -41.5q109 0 178 110q41 61 60.5 134t19.5 141 q0 66 -35 108.5t-102 42.5q-55 0 -102.5 -34.5t-82 -91t-54 -125t-19.5 -136.5zM381 -49l971 1540h133l-969 -1540h-135zM1036 246q0 102 35 200.5t98 174.5q117 139 299 139q131 0 199 -71.5t68 -192.5q0 -98 -34 -196.5t-93 -174.5q-55 -70 -133 -109t-170 -39 q-133 0 -201 74t-68 195zM1188 250q0 -66 34.5 -108t100.5 -42q53 0 98 30t80 83q41 61 60.5 133.5t19.5 138.5t-35 110t-102 44q-55 0 -102.5 -36t-81 -91t-53 -125t-19.5 -137z" />
<glyph unicode="&#x26;" horiz-adv-x="1564" d="M37 352q0 86 32.5 160t92 130t141.5 94t180 52q-35 16 -55 25.5t-37 24.5q-45 35 -66.5 88t-21.5 118q0 104 47 188.5t128 145t190.5 92t232.5 31.5q66 0 128.5 -5t131.5 -21l-41 -136q-57 10 -100 17.5t-92 7.5q-90 0 -172 -23.5t-144.5 -66.5t-99.5 -103.5t-37 -134.5 q0 -115 111 -162q37 -16 74.5 -21t105.5 -5h285l82 301h174l-82 -301h280l-39 -135h-280l-201 -713h-463q-111 0 -180.5 13.5t-128.5 41.5q-86 43 -131 118t-45 179zM221 369q0 -70 35 -122t90 -77q47 -20 106.5 -29.5t153.5 -9.5h240l166 582h-240q-129 0 -207 -11.5 t-147 -46.5q-92 -43 -144.5 -117.5t-52.5 -168.5z" />
<glyph unicode="'" horiz-adv-x="579" d="M324 1481h161l-26 -553h-109z" />
<glyph unicode="(" horiz-adv-x="626" d="M63 197q0 115 11.5 217t40.5 204q29 96 72.5 193.5t105 202t140.5 220.5t177 247h127q-92 -143 -168.5 -279.5t-148.5 -290.5q-33 -72 -60.5 -133t-49 -121.5t-39 -121t-29.5 -127.5q-8 -45 -13.5 -91.5t-11.5 -142.5q-6 -82 -8 -162t0 -162v-31.5v-45t1 -45t1 -31.5 h-117q0 10 -1 16t-1 13.5t-1 19.5t-3 37q-8 104 -16.5 206.5t-8.5 207.5z" />
<glyph unicode=")" horiz-adv-x="624" d="M-166 -303q23 35 41.5 62.5t35.5 55t34.5 57.5t40.5 67q68 113 118 202.5t86.5 171.5t63.5 162t47 168q18 82 30.5 160t20.5 184q4 74 7 141.5t3 120.5q0 59 -1 115.5t-1 116.5h117q6 -53 10.5 -99.5t8.5 -117.5q8 -100 10 -165t2 -124q0 -98 -12.5 -202.5t-34.5 -197.5 q-45 -180 -169 -390t-331 -488h-127z" />
<glyph unicode="*" horiz-adv-x="1105" d="M260 1040l10 148l308 -31l-168 254l131 72l112 -281l144 283l125 -76l-201 -252l311 31l-6 -148l-309 33l168 -254l-133 -74l-109 285l-147 -285l-121 74l198 254z" />
<glyph unicode="+" horiz-adv-x="1290" d="M74 436v146h442v436h156v-436h440v-146h-440v-436h-156v436h-442z" />
<glyph unicode="," horiz-adv-x="593" d="M-207 -252l268 447h222l-334 -447h-156z" />
<glyph unicode="-" horiz-adv-x="718" d="M29 477l39 133h528l-39 -133h-528z" />
<glyph unicode="." horiz-adv-x="561" d="M-49 0l57 207h203l-57 -207h-203z" />
<glyph unicode="/" horiz-adv-x="763" d="M-158 -25l965 1530h151l-960 -1530h-156z" />
<glyph unicode="0" d="M55 383q0 76 14.5 167t39 184t56.5 180t66 157q47 94 102.5 173t121 135.5t144.5 88t171 31.5q96 0 165 -30.5t112 -85t62 -126t19 -155.5q0 -72 -10 -162t-31.5 -188.5t-55.5 -199.5t-79 -194q-39 -82 -90 -151.5t-112.5 -120.5t-135 -81t-161.5 -30q-102 0 -177 31 t-124.5 84t-73 129t-23.5 164zM238 371q0 -123 57 -189.5t164 -66.5q70 0 126 36.5t101 97t81 138.5t64 158q27 74 48.5 152.5t36 154.5t22.5 142.5t8 111.5q0 131 -51 194.5t-147 63.5q-137 0 -232.5 -123t-177.5 -350q-47 -133 -73.5 -269.5t-26.5 -250.5z" />
<glyph unicode="1" d="M340 1073l49 178q53 23 97 42.5t102 49.5q68 37 112.5 65t100.5 73h170l-422 -1481h-187l365 1262q-33 -23 -64.5 -42.5t-62.5 -35.5q-63 -35 -125.5 -61.5t-134.5 -49.5z" />
<glyph unicode="2" d="M-90 0l41 152q2 2 39 30.5t90 70.5t114.5 92t114.5 93t91 73t42 34q35 29 76 60.5t82 65.5t81 66.5t73 63.5q90 84 144 176t54 178q0 92 -59 148.5t-160 56.5q-88 0 -149.5 -34t-102.5 -91q-47 -68 -65 -160h-189q16 78 46 142.5t71 113.5q72 86 177.5 128t232.5 42 q86 0 157.5 -21.5t123.5 -63.5t81 -103.5t29 -141.5q0 -111 -46 -208t-134 -189q-72 -76 -161 -145.5t-192 -153.5q-4 -4 -34.5 -28.5t-73.5 -60.5t-93.5 -76t-93.5 -74.5t-72.5 -59t-33.5 -26.5h698l-39 -150h-960z" />
<glyph unicode="3" d="M-6 326q0 20 2 36.5t6 43.5h186q-4 -31 -4 -44.5v-25.5q0 -100 73 -158.5t189 -58.5q174 0 273 98q47 47 73.5 114.5t26.5 137.5q0 113 -80 174.5t-209 58.5q-8 0 -21 -1t-22 -1l39 142q23 -4 47.5 -4h38.5q84 0 151.5 17t117.5 54q51 37 79.5 97.5t28.5 132.5 q0 109 -67.5 169t-182.5 60q-98 0 -175 -41t-122 -133q-10 -23 -21 -48.5t-24 -66.5h-184q18 102 66.5 181t120 132.5t160.5 81t190 27.5q92 0 168.5 -21.5t133 -64.5t88 -107.5t31.5 -150.5q0 -104 -46 -187t-132 -141q-49 -33 -97 -50t-114 -25q117 -35 171.5 -110 t54.5 -173q0 -111 -45 -202t-122 -155.5t-181.5 -100.5t-225.5 -36q-92 0 -172 24t-140.5 69t-94 109.5t-33.5 146.5z" />
<glyph unicode="4" d="M-31 334l49 170l891 977h238l-287 -1012h238l-45 -135h-234l-96 -334h-178l96 334h-672zM172 469h508l244 838z" />
<glyph unicode="5" d="M37 295q0 43 14 98h191q-8 -25 -10.5 -44t-2.5 -42q0 -88 62.5 -139t165.5 -51q86 0 151.5 34.5t118.5 100.5q55 70 86 156t31 172q0 104 -61.5 169.5t-172.5 65.5q-104 0 -177 -49t-120 -143h-184l277 858h796l-47 -148h-620l-162 -508q66 74 138.5 103.5t164.5 29.5 q84 0 149.5 -28.5t111.5 -76.5t69.5 -111.5t23.5 -133.5q0 -131 -47 -255t-133 -216q-152 -162 -404 -162q-92 0 -166.5 21.5t-129 63.5t-84 101.5t-29.5 133.5z" />
<glyph unicode="6" d="M78 436q0 82 16.5 179.5t45 194.5t65.5 189.5t80 163.5q96 166 222 252t308 86q168 0 268.5 -87.5t100.5 -239.5v-33t-4 -39h-185q2 6 2 29.5v27.5q2 102 -54 155.5t-157 53.5q-113 0 -205 -84t-161 -231q-27 -57 -47.5 -113.5t-42.5 -130.5q80 82 157.5 119t186.5 37 q84 0 152.5 -28t115.5 -77t72.5 -117.5t25.5 -150.5q0 -129 -45 -246t-121 -203q-72 -82 -172 -124t-217 -42q-199 0 -303 123t-104 336zM256 371q0 -111 66.5 -184.5t177.5 -73.5q72 0 135 34.5t108 94.5q55 72 85 162t30 180q0 106 -61.5 176.5t-171.5 70.5 q-82 0 -150.5 -37.5t-117 -101t-75 -146.5t-26.5 -175z" />
<glyph unicode="7" d="M51 0l932 1329h-752l45 152h947l-45 -158l-906 -1323h-221z" />
<glyph unicode="8" d="M8 348q0 94 36 170t95.5 133.5t139 92t165.5 44.5q-88 35 -144 101.5t-56 179.5q0 96 41 176t111.5 136.5t165.5 88t206 31.5q92 0 170 -22.5t134 -65.5t88 -104.5t32 -139.5q0 -104 -51 -193t-135 -147q-43 -29 -89.5 -47t-111.5 -28q100 -35 157.5 -101.5t57.5 -181.5 q0 -113 -44 -205t-120 -156.5t-176 -99.5t-213 -35q-102 0 -186 25t-144.5 72t-94.5 116.5t-34 159.5zM193 360q0 -111 74.5 -180t203.5 -69q80 0 147.5 27.5t115.5 75.5t75 111.5t27 135.5q0 109 -69 173t-200 64q-82 0 -150.5 -23.5t-118.5 -68.5t-77.5 -106.5 t-27.5 -139.5zM424 1067q0 -104 70.5 -171t185.5 -67q68 0 128 24t106.5 66t73 100t26.5 128q0 102 -70 163.5t-184 61.5q-74 0 -135.5 -23.5t-106.5 -64.5t-69.5 -96t-24.5 -121z" />
<glyph unicode="9" d="M10 289q0 51 6 96h187q-4 -27 -5 -40t-1 -30q0 -90 59 -143t170 -53t189.5 59.5t146.5 188.5q39 72 70.5 153.5t60.5 186.5q-72 -78 -153 -116t-187 -38q-82 0 -149.5 27.5t-116.5 77t-76 118t-27 152.5q0 125 42 230.5t115 181t171 118.5t213 43q205 0 307.5 -111.5 t102.5 -306.5q0 -74 -13.5 -161.5t-38 -181t-56.5 -185.5t-69 -172q-92 -203 -223 -303t-325 -100q-88 0 -162 22.5t-127 63t-82 98t-29 125.5zM362 942q0 -111 61.5 -183.5t178.5 -72.5q72 0 134.5 31t107.5 84q53 63 83.5 148t30.5 171q0 111 -64.5 179.5t-174.5 68.5 q-72 0 -136.5 -32.5t-111.5 -88.5q-51 -61 -80 -142t-29 -163z" />
<glyph unicode=":" horiz-adv-x="593" d="M-20 0l57 207h205l-60 -207h-202zM223 825l60 207h202l-59 -207h-203z" />
<glyph unicode=";" horiz-adv-x="591" d="M-205 -252l268 447h222l-336 -447h-154zM225 825l58 207h202l-59 -207h-201z" />
<glyph unicode="&#x3c;" horiz-adv-x="1290" d="M74 430v154l1038 413v-157l-856 -334l856 -330v-158z" />
<glyph unicode="=" horiz-adv-x="1290" d="M74 233v144h1038v-144h-1038zM74 637v143h1038v-143h-1038z" />
<glyph unicode="&#x3e;" horiz-adv-x="1288" d="M74 18v158l856 330l-856 334v157l1036 -413v-154z" />
<glyph unicode="?" horiz-adv-x="1069" d="M147 0l60 195h203l-58 -195h-205zM279 358q23 86 42 150.5t29 89.5q12 31 47 66.5t74 69.5t75 61.5t54 42.5q37 31 82 69.5t86 82.5t68.5 93.5t27.5 98.5q0 88 -63.5 134t-163.5 46q-111 0 -246 -41l43 149q78 16 136.5 24.5t115.5 8.5q82 0 151.5 -16.5t120 -50 t78 -84.5t27.5 -121t-34 -139.5t-86 -134t-112.5 -121t-113.5 -99.5l-135 -108q-47 -39 -71 -66.5t-40 -77.5q-8 -23 -17.5 -54.5t-19.5 -72.5h-155z" />
<glyph unicode="@" horiz-adv-x="1656" d="M90 715q0 145 47 274q49 133 142 238q57 66 127.5 118t154.5 87q82 35 174 54t191 19q80 0 154.5 -13t140.5 -38q131 -49 229 -143q80 -78 125 -189q45 -108 45 -231q0 -127 -51 -246q-47 -115 -133 -190q-27 -23 -55.5 -42.5t-59.5 -31.5q-57 -25 -127 -25q-41 0 -78 17 q-31 14 -55 45q-23 29 -27 76v24q0 10 2 19.5t6 23.5q-27 -49 -57 -90q-29 -35 -59 -59q-76 -57 -185 -58q-106 0 -178 68q-47 47 -69 104q-25 61 -25 140q0 49 10 98t27 96q39 100 104 172q57 61 127 94q72 33 142 33q57 0 100 -14t82 -49q45 -43 61 -115l43 147h135 q-2 -8 -20 -66t-39.5 -129t-41 -134.5t-23.5 -79.5q-10 -37 -17.5 -69t-11.5 -56q-4 -23 -6 -41t0 -31q4 -27 14 -41q23 -33 78 -32q47 0 89 26.5t77 69.5q31 39 53.5 84t36.5 90q18 55 26.5 114.5t4.5 118.5q-4 47 -16.5 90t-30.5 82q-18 41 -45 76t-60 66q-76 72 -192 112 q-117 41 -250 41q-96 0 -182.5 -20.5t-163.5 -57.5q-160 -76 -258 -211q-76 -102 -111 -239q-14 -55 -20.5 -113.5t-2.5 -118.5q8 -117 54 -217q45 -102 127 -184q53 -49 114 -88q63 -37 131 -61q131 -47 283 -48q111 0 206 21.5t191 69.5q90 43 181 106l47 -65 q-45 -33 -88 -60t-86 -49q-111 -57 -219.5 -83t-241.5 -26q-174 0 -318.5 54.5t-255.5 158.5q-104 98 -166 240q-57 137 -57 287zM625 657q0 -86 39 -145q20 -29 49.5 -46t68.5 -17q59 0 111 38q51 37 86 101q20 35 35.5 74.5t27.5 80.5t18.5 79t6.5 69q0 78 -41 125 q-43 49 -115 49q-106 0 -188 -115q-47 -66 -70 -139q-29 -82 -28 -154z" />
<glyph unicode="A" horiz-adv-x="1417" d="M-184 0l1020 1481h215l184 -1481h-193l-43 391h-718l-261 -391h-204zM375 535h606l-80 788z" />
<glyph unicode="B" horiz-adv-x="1361" d="M-2 0l434 1481h463q117 0 189.5 -19.5t123.5 -62.5q97 -85 97 -228q0 -100 -40 -183t-112 -136q-88 -68 -227 -92q111 -33 174 -102.5t63 -182.5q0 -123 -61.5 -225.5t-163.5 -165.5q-72 -45 -160 -64.5t-223 -19.5h-557zM231 150h342q104 0 167 18t116 65t84 114.5 t31 139.5q0 92 -63.5 147.5t-180.5 55.5h-338zM430 831h279q180 0 286 80q55 41 87 101.5t32 132.5q0 125 -102 166q-25 10 -65 15t-95 5h-274z" />
<glyph unicode="C" horiz-adv-x="1361" d="M76 467q0 96 19.5 200.5t56 205t90 193.5t120.5 167q117 129 259.5 198.5t318.5 69.5q209 0 332 -92t123 -256q0 -23 -2 -39t-7 -43h-202q4 29 5 43t1 31q0 98 -74 153.5t-194 55.5q-129 0 -240 -65.5t-197 -188.5q-96 -137 -150 -303t-54 -330q0 -66 19 -127t61 -108.5 t106.5 -76t153.5 -28.5q78 0 145.5 25.5t120.5 74.5q61 55 100 146h207q-47 -143 -156 -242q-84 -76 -191.5 -113.5t-232.5 -37.5q-137 0 -238.5 38.5t-168 105t-99 155t-32.5 188.5z" />
<glyph unicode="D" horiz-adv-x="1536" d="M-2 0l436 1481h432q129 0 238.5 -29t189.5 -89t126 -155.5t46 -230.5q0 -141 -35.5 -280.5t-101.5 -262.5q-68 -133 -172 -229t-235 -146q-154 -59 -412 -59h-512zM236 150h249q53 0 92 1t70 4t56.5 7t54.5 12q129 35 220 107.5t159 199.5q59 111 94 238t35 244 q0 106 -34 176.5t-93.5 113.5t-143.5 60.5t-182 17.5h-231z" />
<glyph unicode="E" horiz-adv-x="1267" d="M-2 0l434 1481h928l-47 -152h-731l-148 -493h696l-43 -146h-694l-160 -538h758l-45 -152h-948z" />
<glyph unicode="F" horiz-adv-x="1177" d="M-2 0l434 1481h873l-45 -152h-678l-150 -495h647l-41 -148h-647l-203 -686h-190z" />
<glyph unicode="G" horiz-adv-x="1449" d="M76 479q0 98 19.5 198.5t55 197t85 184.5t110.5 162q119 145 267.5 213.5t334.5 68.5q96 0 178 -21.5t141.5 -65.5t93.5 -109.5t34 -151.5q0 -25 -2 -38t-7 -42h-204q4 29 5 41t1 29q0 98 -73 154.5t-195 56.5q-129 0 -234.5 -60.5t-193.5 -177.5q-102 -137 -157.5 -306 t-55.5 -327q0 -170 96 -260q102 -96 305 -96q72 0 138.5 10.5t144.5 36.5l131 445h-346l40 143h533l-205 -701q-119 -43 -228.5 -63t-244.5 -20q-137 0 -246.5 38.5t-185.5 112.5q-66 66 -100.5 152t-34.5 196z" />
<glyph unicode="H" horiz-adv-x="1572" d="M-2 0l434 1481h193l-189 -643h758l188 643h193l-436 -1481h-193l203 688h-756l-203 -688h-192z" />
<glyph unicode="I" horiz-adv-x="622" d="M-2 0l434 1481h193l-435 -1481h-192z" />
<glyph unicode="J" horiz-adv-x="1124" d="M-61 270q0 35 4 55.5t16 55.5h197q-8 -23 -12.5 -40t-4.5 -46q0 -74 43 -120t142 -46q156 0 247 133q27 37 47.5 84t36.5 100l310 1035h190l-321 -1084q-23 -78 -54.5 -142.5t-74.5 -115.5q-70 -80 -168.5 -121t-233.5 -41q-166 0 -265 79t-99 214z" />
<glyph unicode="K" horiz-adv-x="1327" d="M-2 0l434 1481h193l-435 -1481h-192zM434 809l785 672h254l-832 -693l502 -788h-236z" />
<glyph unicode="L" horiz-adv-x="1107" d="M-2 0l432 1481h193l-390 -1329h719l-43 -152h-911z" />
<glyph unicode="M" horiz-adv-x="2000" d="M-2 0l436 1481h307l109 -1260l844 1260h311l-438 -1481h-189l398 1341l-904 -1341h-182l-117 1341l-391 -1341h-184z" />
<glyph unicode="N" horiz-adv-x="1617" d="M6 0l432 1481h271l346 -1317l381 1317h184l-438 -1481h-271l-342 1313l-379 -1313h-184z" />
<glyph unicode="O" horiz-adv-x="1552" d="M76 485q0 188 65.5 372.5t175.5 332.5q111 143 264.5 226t364.5 83q125 0 224.5 -34.5t169 -100.5t106.5 -159t37 -210q0 -92 -18.5 -184t-49.5 -181t-73 -169t-89 -148q-115 -160 -266 -249t-369 -89q-123 0 -223 35t-170.5 100.5t-109.5 161t-39 213.5zM272 494 q0 -166 94.5 -267.5t268.5 -101.5q125 0 234.5 61.5t195.5 169.5q104 135 160.5 301t56.5 326q0 168 -89 268.5t-265 100.5q-160 0 -283 -84t-215 -238q-37 -61 -65.5 -130t-49 -139.5t-32 -139t-11.5 -127.5z" />
<glyph unicode="P" horiz-adv-x="1292" d="M-2 0l434 1481h451q98 0 174 -15.5t129 -50.5q66 -41 100.5 -108.5t34.5 -159.5q0 -137 -69.5 -248t-190.5 -176q-76 -41 -165 -58.5t-224 -17.5h-295l-189 -647h-190zM422 791h246q109 0 180.5 17t126.5 52q66 43 108.5 117t42.5 160q0 123 -94 166q-55 28 -187 28h-9 h-254z" />
<glyph unicode="Q" horiz-adv-x="1552" d="M76 481q0 188 65.5 375.5t177.5 335.5q119 154 276 230.5t345 76.5q129 0 230.5 -34.5t170 -100.5t105.5 -159t37 -208q0 -176 -66.5 -361t-181.5 -333q-43 -57 -91 -100t-108 -84q45 10 87 16t94 10q27 2 80 4.5t98 4.5l-52 -154h-264q-59 0 -117.5 -2t-101.5 -4 q-25 -2 -50.5 -2t-55.5 -4q-63 -6 -90 -7t-60 -1q-123 0 -221 35.5t-167 101t-104.5 159t-35.5 205.5zM272 494q0 -166 95.5 -267.5t269.5 -101.5q125 0 234.5 61.5t193.5 169.5q104 135 160.5 302t56.5 327q0 170 -88 269.5t-268 99.5q-158 0 -282 -84t-216 -240 q-37 -61 -65.5 -130t-48 -139.5t-31 -139t-11.5 -127.5z" />
<glyph unicode="R" horiz-adv-x="1386" d="M-2 0l434 1481h445q176 0 276 -41q82 -35 129 -105t47 -168q0 -111 -52 -196.5t-138 -139.5q-55 -35 -112.5 -53t-125.5 -28q96 -20 141 -66.5t45 -140.5q0 -45 -5 -91t-9 -94q-6 -53 -10 -108t-4 -109q0 -31 1 -65.5t5 -75.5h-195q-4 29 -4 48.5v41.5q0 57 6.5 119.5 t14.5 128.5q4 47 8 91t4 85q0 55 -14.5 90t-48.5 58q-29 16 -57.5 21t-96.5 5h-291l-201 -688h-192zM432 825h299q98 0 165 17.5t122 58.5t87 102.5t32 131.5q0 125 -115 172q-59 24 -160 24h-8h-274z" />
<glyph unicode="S" horiz-adv-x="1273" d="M-2 311q0 33 4 61.5t16 69.5h191q-12 -41 -18.5 -63.5t-6.5 -50.5q0 -59 26 -100.5t67.5 -66t94 -35.5t105.5 -11q190 0 295 90q47 41 74.5 96t27.5 117q0 61 -36.5 108t-92 84t-118 64.5t-113.5 52.5q-43 23 -81 44.5t-71 49.5q-49 43 -77.5 101.5t-28.5 144.5 q0 98 45 178t124 135.5t184.5 86t226.5 30.5q203 0 316.5 -82t113.5 -223q0 -29 -3 -46.5t-8 -47.5h-190q8 39 8 71q0 92 -70.5 141.5t-191.5 49.5q-74 0 -138.5 -20.5t-112.5 -56.5t-76.5 -86t-28.5 -110q0 -59 26.5 -100t67.5 -71.5t92 -54t100 -48.5q39 -20 80 -39.5 t80 -42.5q74 -45 126 -108.5t52 -165.5q0 -104 -47 -196.5t-125 -156.5q-160 -127 -444 -127q-221 0 -343 86.5t-122 247.5z" />
<glyph unicode="T" horiz-adv-x="1087" d="M139 1327l45 154h1133l-43 -154h-471l-393 -1327h-193l393 1327h-471z" />
<glyph unicode="U" horiz-adv-x="1540" d="M102 377q0 70 15.5 153.5t36.5 149.5l237 801h195l-258 -881q-20 -66 -28.5 -113t-8.5 -88q0 -125 82 -199.5t241 -74.5q131 0 232.5 54t163.5 155q41 68 70.5 148.5t52.5 160.5l245 838h193l-266 -897q-23 -72 -47.5 -140.5t-53.5 -124.5q-88 -170 -244.5 -256 t-375.5 -86q-227 0 -354.5 106.5t-127.5 293.5z" />
<glyph unicode="V" horiz-adv-x="1329" d="M205 1481h196l86 -1286l828 1286h213l-987 -1481h-224z" />
<glyph unicode="W" horiz-adv-x="2158" d="M233 0l5 1481h198l-24 -1293l741 1293h215l62 -1295l663 1295h209l-795 -1481h-252l-53 1251l-725 -1251h-244z" />
<glyph unicode="X" horiz-adv-x="1275" d="M-211 0l739 791l-299 690h211l238 -582l504 582h235l-669 -715l335 -766h-217l-270 651l-578 -651h-229z" />
<glyph unicode="Y" d="M141 1481h209l264 -709l584 709h223l-755 -867l-181 -614h-192l188 633z" />
<glyph unicode="Z" horiz-adv-x="1175" d="M-137 0l37 160l1132 1169h-815l47 152h1043l-39 -148l-1147 -1181h901l-49 -152h-1110z" />
<glyph unicode="[" horiz-adv-x="624" d="M-133 -303l526 1784h357l-35 -109h-205l-461 -1565h207l-33 -110h-356z" />
<glyph unicode="\" horiz-adv-x="763" d="M61 1505h150l502 -1530h-158z" />
<glyph unicode="]" horiz-adv-x="626" d="M-195 -303l33 110h205l459 1565h-207l33 109h354l-520 -1784h-357z" />
<glyph unicode="^" horiz-adv-x="1290" d="M242 621l350 860h145l353 -860h-164l-262 675l-258 -675h-164z" />
<glyph unicode="_" horiz-adv-x="1058" d="M2 -154h1024v-102h-1024v102z" />
<glyph unicode="`" horiz-adv-x="544" d="M219 1483h205l154 -297h-132z" />
<glyph unicode="a" horiz-adv-x="1099" d="M-51 238q0 111 59.5 191.5t159.5 127.5q66 31 149.5 46t206.5 24q20 2 38 2t41.5 1t57 1t84.5 2l15 57q14 55 14 96q0 72 -46 113t-144 41q-104 0 -170 -47t-86 -133h-178q23 145 144.5 219t303.5 74q160 0 255 -61.5t95 -184.5q0 -41 -9 -90t-26 -111q-6 -18 -15 -51 t-19.5 -67.5t-20.5 -67.5t-16 -51q-12 -41 -25.5 -88.5t-25.5 -96.5q-10 -47 -19.5 -94t-17.5 -90h-172q0 6 3 26.5t7 45t8 46t6 27.5q-80 -86 -171 -124.5t-189 -38.5q-125 0 -211 64.5t-86 191.5zM131 256q0 -78 46 -118t130 -40q92 0 165 52.5t126 123.5q23 31 42 67 t42 91q4 10 5 13.5t3 9.5t7.5 21t17.5 48q-35 -2 -73 -3t-73 -3q-111 -8 -180.5 -21.5t-122.5 -41.5q-63 -35 -99 -85.5t-36 -113.5z" />
<glyph unicode="b" horiz-adv-x="1204" d="M-61 0q4 12 15 49t24.5 80t24.5 80t13 45l365 1227h180l-180 -596q84 96 179 133t181 37q168 0 252 -101.5t84 -259.5q0 -137 -44 -267t-122 -230q-84 -104 -190.5 -159.5t-228.5 -55.5q-111 0 -194 49t-126 153l-57 -184h-176zM242 340q0 -102 63.5 -169t171.5 -67 q94 0 173 50.5t138 144.5q51 78 80 178.5t29 190.5q0 117 -54.5 187.5t-158.5 70.5q-98 0 -187 -56.5t-151 -167.5q-47 -86 -75.5 -180t-28.5 -182z" />
<glyph unicode="c" horiz-adv-x="1077" d="M0 344q0 152 59.5 294t163.5 245q88 88 193.5 129t234.5 41q152 0 250 -65.5t98 -190.5q0 -25 -3 -50.5t-13 -66.5h-176q14 55 14 94q0 78 -47 120t-139 42q-109 0 -198 -63.5t-150 -170.5q-47 -80 -76 -176t-29 -184q0 -111 59.5 -175.5t176.5 -64.5q111 0 187.5 59.5 t111.5 162.5h184q-53 -160 -183 -251t-319 -91q-193 0 -296 99t-103 263z" />
<glyph unicode="d" horiz-adv-x="1220" d="M0 350q0 147 58.5 294t160.5 249q78 78 176.5 121t210.5 43q115 0 195 -49.5t119 -149.5l186 623h178l-366 -1231q-29 -98 -60 -250h-176l31 145q-86 -88 -170 -125.5t-195 -37.5q-166 0 -257 100t-91 268zM186 356q0 -111 57.5 -178t168.5 -67t196.5 62.5t145.5 172.5 q43 80 70.5 177t27.5 179q0 111 -60.5 169.5t-170.5 58.5q-182 0 -308 -178q-61 -88 -94 -189.5t-33 -206.5z" />
<glyph unicode="e" horiz-adv-x="1105" d="M0 315q0 74 16.5 152t46 153.5t71.5 143t93 121.5q84 88 186.5 130t219.5 42q160 0 256 -82t96 -234q0 -61 -11 -122.5t-38 -133.5h-733q-25 -86 -25 -161q0 -106 55.5 -166t172.5 -60q109 0 177 51.5t122 157.5h186q-137 -330 -481 -330q-193 0 -301.5 92.5 t-108.5 245.5zM240 602h546q14 47 18.5 72.5t4.5 60.5q0 86 -45 141.5t-146 55.5q-174 0 -286 -150q-29 -37 -50.5 -82t-41.5 -98z" />
<glyph unicode="f" horiz-adv-x="632" d="M-14 0l266 905h-211l37 127h211l47 152q27 84 57.5 143t71.5 96t97 54.5t134 17.5q41 0 77 -4t77 -14l-41 -125q-45 12 -96 12q-49 0 -82 -13.5t-55.5 -40t-38 -66.5t-31.5 -91l-37 -121h225l-37 -127h-225l-270 -905h-176z" />
<glyph unicode="g" horiz-adv-x="1200" d="M-115 -147q0 16 1 24t3 25h181q-2 -10 -1 -19.5t1 -19.5q2 -164 211 -164q139 0 211.5 55.5t121.5 163.5q29 59 47.5 119.5t38.5 122.5q-63 -72 -148 -115t-194 -43q-162 0 -256 100.5t-94 266.5q0 125 41 240.5t109 207.5q80 109 189.5 174.5t232.5 65.5 q117 0 200.5 -49.5t118.5 -151.5l51 176h180q-4 -12 -17 -55t-28.5 -93t-29 -94.5t-17.5 -58.5l-194 -663q-43 -147 -89 -236.5t-108 -144.5q-66 -59 -161 -84t-220 -25q-86 0 -155.5 16.5t-116.5 49.5t-78 89t-31 120zM197 377q0 -106 57 -176t168 -70q86 0 159.5 40 t125.5 112q61 86 96 194.5t35 196.5q0 111 -61.5 181.5t-172.5 70.5q-92 0 -172 -52.5t-135 -138.5q-47 -74 -73.5 -167t-26.5 -191z" />
<glyph unicode="h" horiz-adv-x="1193" d="M-59 0l436 1481h182l-182 -617q88 96 179 142.5t198 46.5q133 0 208.5 -66.5t75.5 -181.5q0 -49 -14 -109.5t-29 -107.5l-174 -588h-180l180 602q10 35 21.5 84t11.5 86q0 70 -42 109t-120 39q-70 0 -132 -31t-122 -86q-59 -57 -97 -124t-65 -157l-155 -522h-180z" />
<glyph unicode="i" horiz-adv-x="491" d="M-59 0l301 1032h180l-301 -1032h-180zM305 1278l53 176h201l-53 -176h-201z" />
<glyph unicode="j" horiz-adv-x="495" d="M-369 -395l35 127q23 -2 34 -3t28 -1q74 0 112.5 39.5t67.5 134.5l334 1130h180l-342 -1167q-25 -84 -51.5 -128t-67.5 -77q-84 -61 -209 -61q-63 0 -121 6zM303 1278l53 176h203l-53 -176h-203z" />
<glyph unicode="k" horiz-adv-x="1062" d="M-59 0l436 1481h178l-438 -1481h-176zM295 588l569 446h236l-611 -459l381 -575h-215z" />
<glyph unicode="l" horiz-adv-x="491" d="M-59 0l436 1481h178l-434 -1481h-180z" />
<glyph unicode="m" horiz-adv-x="1857" d="M-59 0q4 12 15 50t26.5 91.5t35 117t37.5 128.5q47 152 103 336q27 86 44 158.5t38 150.5h176l-47 -182q92 106 188 154.5t207 48.5q109 0 178.5 -55.5t73.5 -166.5q86 111 188.5 166.5t216.5 55.5q145 0 213 -71t68 -173q0 -53 -13.5 -109.5t-29.5 -107.5l-178 -592 h-181l179 592q12 41 22 95t10 89q0 66 -36.5 106t-108.5 40q-86 0 -168 -49.5t-141 -131.5q-31 -43 -61.5 -112.5t-55.5 -155.5l-141 -473h-178l174 586q12 41 25.5 95t13.5 95q0 57 -35 101.5t-113 44.5q-68 0 -131 -32t-116.5 -85t-94.5 -124t-65 -151l-158 -530h-180z " />
<glyph unicode="n" horiz-adv-x="1193" d="M-59 0l229 766q18 61 36.5 131t35.5 135h180l-45 -168q88 96 179 142.5t198 46.5q133 0 208.5 -66.5t75.5 -181.5q0 -47 -14 -108.5t-29 -108.5l-174 -588h-180l180 602q14 47 23.5 90t9.5 82q0 66 -42 106t-120 40q-133 0 -254 -117q-59 -57 -97 -125t-65 -156 l-155 -522h-180z" />
<glyph unicode="o" horiz-adv-x="1167" d="M0 358q0 141 48 271.5t134 226.5q90 102 205 151.5t250 49.5q193 0 300 -99.5t107 -267.5q0 -135 -45 -264t-120 -231q-78 -106 -196 -160.5t-269 -54.5q-201 0 -307.5 102t-106.5 276zM182 350q0 -117 66.5 -182.5t183.5 -65.5q111 0 198 61.5t142 178.5q41 82 63.5 172 t22.5 168q0 123 -59.5 187.5t-182.5 64.5q-104 0 -186 -56.5t-143 -158.5q-51 -86 -78 -182.5t-27 -186.5z" />
<glyph unicode="p" horiz-adv-x="1204" d="M-176 -387l344 1145q18 59 28.5 95t18.5 63.5t15.5 53t15.5 62.5h178l-37 -133q90 86 175 121t177 35q88 0 151.5 -28t105.5 -77t61.5 -117.5t19.5 -148.5q0 -135 -43 -265t-121 -229q-84 -104 -188 -157t-227 -53q-111 0 -196 49t-128 155l-172 -571h-178zM242 340 q0 -102 64.5 -170t172.5 -68q94 0 172 50.5t137 146.5q51 78 80 178.5t29 188.5q0 119 -50 189.5t-161 70.5q-100 0 -189 -56.5t-151 -167.5q-47 -86 -75.5 -180t-28.5 -182z" />
<glyph unicode="q" horiz-adv-x="1236" d="M4 350q0 147 58.5 294t160.5 249q78 78 177.5 121t209.5 43q115 0 195 -49.5t119 -149.5l55 174h182q-8 -27 -21.5 -66.5t-27.5 -82.5t-26.5 -84t-20.5 -68l-336 -1118h-180l160 524q-82 -84 -165 -119.5t-192 -35.5q-166 0 -257 100t-91 268zM190 356q0 -111 57.5 -178 t168.5 -67t196.5 61t145.5 172q43 80 70.5 175t27.5 177q0 111 -60.5 172.5t-170.5 61.5q-92 0 -170 -46t-140 -134q-61 -90 -93 -189.5t-32 -204.5z" />
<glyph unicode="r" horiz-adv-x="772" d="M-59 0l233 807q14 47 25.5 97t29.5 128h172l-47 -188q78 106 164 154.5t191 48.5q16 0 30.5 -1.5t36.5 -3.5l-43 -163q-25 4 -44 7t-42 3q-133 0 -226 -92t-147 -271l-157 -526h-176z" />
<glyph unicode="s" horiz-adv-x="944" d="M-76 283v30h174q-2 -14 -1 -25.5t3 -21.5q12 -86 72.5 -126t153.5 -40q49 0 94 12.5t80 36t55 58.5t20 78q0 53 -27.5 88t-92.5 63l-136 62q-117 53 -168 106t-51 146q0 74 33 130t90.5 96t134 60.5t162.5 20.5q102 0 183 -31t122 -88q23 -33 34 -72t11 -96l1 -12 q0 -3 -1 -8h-178v14q0 82 -43 126q-47 48 -149 48q-94 0 -159 -43t-65 -115q0 -51 35 -83.5t103 -65.5l118 -56q61 -29 93 -47t61 -45q70 -66 70 -168q0 -84 -37 -146.5t-98.5 -104t-144.5 -63t-175 -21.5q-70 0 -137.5 17t-120.5 54t-86 94.5t-33 137.5z" />
<glyph unicode="t" horiz-adv-x="659" d="M35 905l39 127h211l55 191l203 86l-80 -277h246l-39 -127h-246l-166 -565q-27 -86 -27 -127t28 -64.5t87 -23.5q33 0 57.5 3t59.5 11l-35 -127q-47 -10 -76.5 -15t-72.5 -5q-231 0 -232 184q0 35 7 72t24 94l170 563h-213z" />
<glyph unicode="u" horiz-adv-x="1189" d="M4 227q0 47 14.5 108.5t28.5 108.5l174 588h178l-178 -602q-10 -39 -21.5 -87t-11.5 -87q0 -66 39 -104.5t121 -38.5q135 0 256 116q59 57 97 128t63 153l158 522h180l-230 -766q-23 -74 -39 -137t-32 -129h-180l43 168q-88 -96 -178.5 -142t-196.5 -46q-135 0 -210 66.5 t-75 180.5z" />
<glyph unicode="v" horiz-adv-x="1042" d="M63 1032h195l74 -876l553 876h200l-700 -1032h-192z" />
<glyph unicode="w" horiz-adv-x="1738" d="M80 1032h196l23 -860l541 860h209l10 -846l516 846h203l-682 -1032h-187l-16 850l-541 -850h-200z" />
<glyph unicode="x" horiz-adv-x="1017" d="M-182 0l522 539l-240 493h213l164 -387l357 387h210l-497 -510l244 -522h-199l-182 418l-383 -418h-209z" />
<glyph unicode="y" horiz-adv-x="1036" d="M10 -387l238 379l-193 1042h199l119 -856l520 854h186l-663 -1046l-219 -373h-187z" />
<glyph unicode="z" horiz-adv-x="911" d="M-113 0l35 135l733 772h-567l37 125h776l-39 -131l-729 -776h602l-39 -125h-809z" />
<glyph unicode="{" horiz-adv-x="759" d="M0 539l29 100q180 12 262 106q27 31 50.5 83.5t44 111.5t37.5 118.5t34 102.5q41 113 98 177.5t162 103.5q90 33 227 39l-26 -97q-131 -6 -213 -75q-51 -43 -83 -108.5t-55.5 -138.5t-45 -146.5t-52.5 -135.5q-47 -92 -114.5 -139t-188.5 -57q84 -20 133 -70 q51 -51 51 -131q0 -23 -4 -46.5t-8 -47.5q-6 -45 -20.5 -90t-28 -90.5t-23.5 -89.5t-10 -85q0 -84 82 -120q37 -16 108 -23l-28 -96q-2 0 -11.5 1t-11.5 1q-143 8 -213.5 71.5t-70.5 159.5q0 59 14 118.5t32.5 117t33 112t14.5 103.5q0 39 -21.5 70.5t-60.5 54.5 q-47 27 -123 35z" />
<glyph unicode="|" horiz-adv-x="514" d="M178 -438v2048h156v-2048h-156z" />
<glyph unicode="}" horiz-adv-x="759" d="M-252 -305l29 96q86 4 141 31.5t96 71.5q43 47 70 108t48.5 128t42 135.5t50.5 129.5q47 92 116 139.5t187 57.5q-82 20 -131 67q-51 49 -51 142q0 55 14.5 109.5t32 109.5t31.5 109.5t14 107.5q0 78 -54 109.5t-134 39.5l26 95q2 0 9.5 1t9.5 -1q129 0 210 -61.5 t81 -164.5q0 -57 -14.5 -117.5t-33 -120t-32.5 -115.5t-14 -105q0 -61 36 -97q31 -29 76 -43t90 -18l-28 -100q-82 -6 -139.5 -26.5t-96.5 -57.5t-65.5 -89.5t-49.5 -119.5q-23 -70 -43 -136.5t-46.5 -125t-61.5 -107.5t-86 -86q-55 -41 -134 -66.5t-196 -29.5z" />
<glyph unicode="~" horiz-adv-x="1290" d="M37 352q6 27 14 53.5t19 51.5q10 20 19 39.5t22 38.5q43 61 102 92q57 27 119 26q37 -4 71 -10q33 -6 66 -13t57 -16q27 -10 52.5 -19t52.5 -20q41 -16 90 -32q27 -10 51.5 -17.5t48.5 -11.5q16 -4 30.5 -4h29.5q41 0 67 12q18 8 32.5 20.5t27.5 28.5q29 37 41 93h104 q-8 -47 -29 -97q-8 -20 -18 -39.5t-21 -35.5q-43 -66 -104 -99q-53 -29 -121 -28q-51 0 -121 16q-37 10 -74.5 23.5t-76.5 27.5q-29 10 -55.5 19.5t-53.5 19.5q-47 16 -91 27.5t-79 11.5q-39 0 -67 -14q-35 -18 -62 -54q-31 -43 -39 -90h-104z" />
<glyph unicode="&#xa1;" horiz-adv-x="610" d="M-117 -403l367 1122h147l-295 -1122h-219zM266 883l58 194h204l-59 -194h-203z" />
<glyph unicode="&#xa2;" d="M66 344q0 152 59 294t164 245q88 88 193.5 129t234.5 41q29 0 55.5 -3t52.5 -8l105 183h112l-120 -211q68 -31 105.5 -85.5t37.5 -131.5q0 -25 -3 -50.5t-13 -66.5h-177q14 55 15 94q0 53 -8.5 79t-24.5 42l-446 -782q20 -6 35.5 -8.5t39.5 -2.5q111 0 188 59.5 t111 162.5h185q-53 -160 -183.5 -251t-318.5 -91q-35 0 -66.5 4t-60.5 10l-107 -186h-108l125 217q-90 45 -136 125.5t-46 191.5zM248 342q0 -66 17.5 -112t58.5 -76l438 776q-16 4 -27.5 5t-34.5 1q-111 0 -198.5 -63.5t-149.5 -170.5q-47 -80 -75.5 -176t-28.5 -184z" />
<glyph unicode="&#xa3;" d="M-78 0l41 143h127l172 598h-160l41 136h154q35 117 81 229.5t115.5 200.5t166 142t231.5 54q102 0 188 -34.5t133 -98.5q25 -33 38.5 -72t15.5 -92q0 -8 -2 -31.5t-4 -31.5h-185q6 29 6 45q0 78 -55 128t-147 50q-63 0 -116.5 -29.5t-94.5 -77t-73 -106.5t-52 -119 q-14 -41 -25.5 -80t-25.5 -77h327l-39 -136h-325l-174 -598h651l-43 -143h-967z" />
<glyph unicode="&#xa4;" d="M111 1124l96 95l131 -132q49 33 90 50q80 35 164 34q49 0 90 -9t82 -25q45 -20 90 -50l131 130l92 -93l-129 -133q41 -59 64 -125q20 -61 20 -133q0 -84 -35 -166q-10 -23 -22 -45t-29 -45l133 -131l-94 -96l-133 133q-39 -31 -84 -49q-80 -37 -170 -37q-86 0 -166 35 l-22.5 9t-22.5 11q-12 6 -23.5 14.5t-23.5 16.5l-133 -133l-94 96l131 131q-16 23 -28.5 45.5t-22.5 44.5q-33 78 -33 170q0 43 8 83t25 79q4 10 9 21.5t11 21.5q12 25 31 49zM301 733q0 -29 5 -55.5t16 -50.5q18 -51 55 -92q37 -43 100 -70q59 -27 119 -27q29 0 55.5 5.5 t50.5 15.5q51 18 91 55q45 39 71 98q27 60 27 121q0 63 -25 119q-23 55 -71 100q-43 41 -93 58q-49 18 -106 18q-55 0 -104 -18q-51 -18 -95 -58q-47 -41 -71 -100q-25 -55 -25 -119z" />
<glyph unicode="&#xa5;" d="M106 375l35 117h305q2 10 8.5 29.5t12.5 42t12 42t8 27.5h-305l35 119h236l-230 729h207l197 -688l581 688h215l-641 -729h236l-35 -119h-305q-2 -4 -7 -22.5t-11.5 -42t-12.5 -45t-10 -31.5h305l-35 -117h-303l-108 -375h-191l109 375h-308z" />
<glyph unicode="&#xa6;" horiz-adv-x="514" d="M178 -182v512h156v-512h-156zM178 842v512h156v-512h-156z" />
<glyph unicode="&#xa7;" horiz-adv-x="1216" d="M84 27l39 131q66 -29 137.5 -44.5t140.5 -15.5q117 0 193 49q37 25 59.5 61t22.5 77q0 57 -62 100q-23 16 -57.5 35.5t-87.5 48.5q-68 37 -105.5 60.5t-62.5 52.5q-51 57 -51 127q0 68 37 123t100 96q41 25 81 42t99 36q-137 90 -137 208q0 68 33 122.5t87 91t123.5 56 t145.5 19.5q70 0 140.5 -13t148.5 -36l-37 -129q-70 25 -130 38t-122 13q-37 0 -74.5 -10t-66.5 -28.5t-47.5 -44t-18.5 -56.5t18.5 -54.5t59.5 -52.5q4 -6 32 -24.5t60.5 -40t60 -40.5t31.5 -28q66 -47 94.5 -90t28.5 -100q0 -59 -29.5 -112.5t-80.5 -90.5q-35 -27 -71 -45 t-91 -41q29 -16 43 -27.5t31 -25.5q63 -53 63 -146q0 -86 -37 -150.5t-98 -107.5t-143 -65.5t-172 -22.5q-188 0 -328 54zM436 743q0 -29 16.5 -56.5t43.5 -47.5q20 -14 41.5 -27.5t64.5 -36.5q47 18 77 34t58 36q78 55 78 131q0 51 -53 98q-18 16 -36.5 28.5t-53.5 39.5 q-55 -20 -86 -34.5t-60 -30.5q-41 -25 -65.5 -59t-24.5 -75z" />
<glyph unicode="&#xa8;" horiz-adv-x="544" d="M147 1276l58 180h172l-58 -180h-172zM520 1276l58 180h172l-58 -180h-172z" />
<glyph unicode="&#xa9;" horiz-adv-x="1636" d="M53 741q0 84 17.5 163t50.5 151q35 74 81 139.5t105 118.5q53 47 113.5 84t126.5 63q129 49 276 49q141 0 277 -51q131 -51 237 -145q121 -109 187 -258q33 -72 50 -151t17 -163q0 -139 -51 -274q-27 -66 -63.5 -126t-83.5 -114q-109 -121 -258 -186q-147 -66 -312 -66 q-166 0 -313 66q-74 33 -139.5 81t-118.5 107q-94 104 -148 238q-51 135 -51 274zM141 741q0 -66 11.5 -125t33.5 -116q47 -121 131 -213q98 -109 230 -166q63 -29 133 -44.5t143 -15.5q74 0 142.5 15.5t132.5 44.5q131 57 229 166q86 94 131 211q45 118 45 243 q0 145 -57 277q-29 66 -72 124t-96 105q-94 86 -211 131q-119 45 -244 45q-127 0 -245 -45q-121 -47 -211 -129q-53 -47 -96.5 -105.5t-71.5 -123.5q-57 -131 -58 -279zM451 743q0 98 22 183q25 88 80 153q49 59 125 90q66 27 153 27q82 0 150 -29q74 -31 115 -94 q33 -53 32 -110h-112q-4 31 -15 49q-8 18 -26 37q-31 31 -66 41q-37 12 -80 12q-59 0 -104 -21.5t-78 -60.5q-41 -51 -59 -123q-18 -68 -19 -149q0 -78 18.5 -148t57.5 -123q23 -31 57 -53q29 -16 60 -25q16 -4 32.5 -6t34.5 -2q23 0 44.5 4t39.5 11q41 16 68 43 q35 35 43 86h113q-4 -16 -7.5 -33t-9.5 -33q-12 -37 -33 -61q-23 -29 -53 -49.5t-65 -34.5q-70 -27 -148 -27q-96 0 -170 37q-106 53 -155 168q-45 106 -45 241z" />
<glyph unicode="&#xaa;" horiz-adv-x="698" d="M143 1024q0 80 51.5 135t133.5 78q43 12 100 16t121 7h55q4 12 6 24l4 16l2 9q4 20 5 39q0 31 -25 49t-70 18q-106 0 -143 -88h-131q10 35 32.5 64.5t51.5 52.5q41 31 93 44t110 13q106 0 154 -38.5t48 -108.5q0 -29 -6 -56.5t-16 -54.5q-14 -41 -26.5 -82t-24.5 -80 q-10 -35 -18.5 -71.5t-18.5 -71.5q-4 -14 -8 -37q0 -10 -2 -18h-119q0 2 3 12t5 23q2 12 6 28q-55 -39 -99 -56.5t-100 -17.5q-78 0 -126 41t-48 111zM266 1036q0 -39 25.5 -59.5t66.5 -20.5q43 0 82 18.5t68 51.5q23 25 37 55t30 93l-26 2h-18.5h-10.5q-115 0 -184.5 -33 t-69.5 -107z" />
<glyph unicode="&#xab;" horiz-adv-x="1009" d="M78 567l325 351h150l-315 -377l79 -420h-141zM475 567l324 351h147l-313 -379l80 -418h-142z" />
<glyph unicode="&#xac;" horiz-adv-x="1290" d="M74 637v143h1038v-547h-149v404h-889z" />
<glyph unicode="&#xad;" horiz-adv-x="718" d="M29 477l39 133h528l-39 -133h-528z" />
<glyph unicode="&#xae;" horiz-adv-x="978" d="M233 1120q0 80 30 149.5t82 122t122 82t149 29.5q80 0 151 -29.5t123 -82t81.5 -122t29.5 -149.5t-29.5 -149.5t-81.5 -121.5t-123 -83t-151 -31t-149.5 31t-121.5 83t-82 121.5t-30 149.5zM303 1120q0 -68 23.5 -126t65.5 -102t99.5 -69.5t124.5 -25.5q68 0 125.5 25.5 t99.5 69.5t66.5 102t24.5 126t-24.5 126.5t-66.5 101.5t-99.5 68.5t-125.5 25.5t-125 -25.5t-99 -68.5t-65.5 -101.5t-23.5 -126.5zM479 926v397h144q41 0 63.5 -4t38.5 -19q18 -14 26.5 -34.5t8.5 -42.5q0 -37 -23 -64q-18 -20 -55 -31q39 -8 53 -34q14 -27 15.5 -57.5 t5.5 -59.5q2 -12 5 -26.5t9 -24.5h-70q-6 12 -7 22t-3 31q-2 16 -5 46t-9 44q-8 18 -20.5 23.5t-30.5 5.5h-84v-172h-62zM541 1145h57q37 0 66.5 11t29.5 56q0 39 -26.5 51.5t-59.5 12.5h-67v-131z" />
<glyph unicode="&#xaf;" horiz-adv-x="542" d="M135 1266l23 104h571l-24 -104h-570z" />
<glyph unicode="&#xb0;" horiz-adv-x="845" d="M248 1188q0 74 26 129q27 59 78 104q43 41 99 62q49 20 112 20t113 -20q55 -20 98 -62q47 -41 76 -104q29 -61 29 -129t-29 -129q-29 -63 -76 -105q-23 -18 -46 -34.5t-52 -26.5q-27 -10 -55.5 -15.5t-57.5 -5.5q-61 0 -115.5 23t-95.5 59q-51 45 -78 105q-27 55 -26 129 zM377 1188q0 -37 12 -68q12 -33 35 -57q14 -14 29.5 -25.5t33.5 -19.5q37 -16 76 -17q39 0 76 17q37 16 63 45q23 25 35 57q13 31 13 68t-17 74q-16 41 -45 65q-25 23 -57 35q-31 12 -68 12t-67 -12q-33 -12 -58 -35q-31 -29 -47 -65q-14 -31 -14 -74z" />
<glyph unicode="&#xb1;" horiz-adv-x="1290" d="M74 -31v146h1038v-146h-1038zM74 551v143h442v353h156v-353h440v-143h-440v-348h-156v348h-442z" />
<glyph unicode="&#xb2;" horiz-adv-x="784" d="M61 631l29 104q31 18 45.5 28.5t22.5 15.5t15 8.5t20 11.5q119 74 202.5 133t147.5 117q154 137 153 245q0 47 -34.5 77t-88.5 30q-63 0 -110 -39t-74 -109h-137q31 117 126 182.5t216 65.5q109 0 173 -50t64 -142q0 -100 -70.5 -186.5t-170.5 -174.5q-47 -41 -120 -93 t-183 -118h395l-31 -106h-590z" />
<glyph unicode="&#xb3;" horiz-adv-x="784" d="M94 823q0 10 2 22.5t4 24.5h133q-2 -6 -2 -14v-14q0 -59 41 -92t113 -33q88 0 150.5 51t62.5 135q0 59 -47 89t-125 30h-33l29 100h51q98 0 163.5 41t65.5 127q0 57 -40.5 85t-106.5 28q-70 0 -117 -35t-73 -113h-134q35 125 125 185.5t217 60.5q111 0 186 -50t75 -148 q0 -92 -61.5 -156t-151.5 -82q106 -45 106 -158q0 -68 -28.5 -121t-78 -91t-113 -58.5t-132.5 -20.5q-121 0 -201 54.5t-80 152.5z" />
<glyph unicode="&#xb4;" horiz-adv-x="542" d="M262 1186l256 297h213l-332 -297h-137z" />
<glyph unicode="&#xb5;" horiz-adv-x="1208" d="M-141 -399l424 1431h159l-172 -575q-4 -12 -7 -27.5t-7 -23.5q-18 -61 -18 -80q-2 -14 -2 -27.5v-26.5q0 -14 3 -26.5t7 -24.5q14 -51 47 -76q18 -14 41.5 -22t58.5 -8q121 0 234 96q31 29 55.5 56.5t44.5 62.5q12 20 23.5 42.5t21.5 49.5t20.5 55.5t20.5 63.5l150 491 h159l-221 -735q-4 -10 -12 -37t-12 -45q-8 -27 -16.5 -60.5t-12.5 -43.5q-10 -35 -17.5 -65l-11.5 -46h-149l43 164l-19.5 -19.5l-19.5 -19.5q-61 -59 -119 -90q-53 -31 -100 -41q-25 -6 -49.5 -10t-51.5 -4q-78 0 -125 26q-10 6 -18 12.5t-18 14.5q-10 10 -19.5 20 t-19.5 23l-140 -475h-155z" />
<glyph unicode="&#xb6;" horiz-adv-x="1286" d="M166 913q0 137 59.5 243t156.5 178.5t223 109.5t257 37h426l-440 -1481h-150l402 1358h-240l-403 -1358h-150l182 606q-139 14 -231 90t-92 217z" />
<glyph unicode="&#xb7;" horiz-adv-x="593" d="M150 553l57 207h203l-58 -207h-202z" />
<glyph unicode="&#xb8;" horiz-adv-x="542" d="M-125 -375l33 66q70 -41 164 -41q53 0 87 23.5t34 70.5q0 37 -29 57.5t-72 20.5q-35 0 -78 -17l-34 29l151 180h78l-113 -135q41 8 72 8q68 0 111 -35t43 -94q0 -43 -20.5 -76.5t-55.5 -56t-81 -34t-97 -11.5q-55 0 -100.5 11.5t-92.5 33.5z" />
<glyph unicode="&#xb9;" horiz-adv-x="782" d="M313 1227l37 121q80 29 138.5 61.5t113.5 73.5h119l-256 -854h-131l211 700q-57 -35 -109.5 -57.5t-122.5 -44.5z" />
<glyph unicode="&#xba;" horiz-adv-x="763" d="M174 1077q0 25 3 48.5t7 48.5q16 74 51 134t85.5 103t113 67.5t129.5 24.5q109 0 173.5 -56.5t64.5 -154.5q0 -61 -28 -124.5t-62 -123.5q-51 -84 -126 -130t-173 -46q-111 0 -174.5 55.5t-63.5 153.5zM301 1087q0 -57 33 -93t94 -36q72 0 121 47.5t84 124.5 q37 84 37 150q0 131 -121 131q-59 0 -102.5 -34t-73.5 -81q-31 -45 -51.5 -100t-20.5 -109z" />
<glyph unicode="&#xbb;" horiz-adv-x="1011" d="M-43 121l315 379l-77 418h137l100 -447l-328 -350h-147zM352 121l318 377l-82 420h143l96 -447l-323 -350h-152z" />
<glyph unicode="&#xbc;" horiz-adv-x="1880" d="M305 1227l37 121q80 29 138.5 61.5t113.5 73.5h119l-256 -854h-131l211 700q-57 -35 -109.5 -57.5t-122.5 -44.5zM371 -49l966 1540h138l-969 -1540h-135zM1001 186l33 117l543 553h160l-172 -573h145l-33 -97h-143l-53 -186h-127l55 186h-408zM1153 283h285l133 432z " />
<glyph unicode="&#xbd;" horiz-adv-x="1880" d="M301 1227l37 121q80 29 138.5 61.5t113.5 73.5h119l-256 -854h-131l210 700q-57 -35 -109 -57.5t-122 -44.5zM354 -49l971 1540h129l-965 -1540h-135zM977 0l31 104q66 39 137.5 84t144.5 97q152 104 238 199.5t86 177.5q0 47 -35 77.5t-88 30.5q-63 0 -111.5 -39 t-74.5 -108h-136q31 119 126.5 183t215.5 64q109 0 173.5 -50t64.5 -142q0 -98 -70.5 -186.5t-171.5 -174.5q-49 -41 -120.5 -94t-182.5 -119h393l-30 -104h-590z" />
<glyph unicode="&#xbe;" horiz-adv-x="1880" d="M88 823q0 10 1 22.5t3 24.5h133q-2 -6 -2 -14v-14q0 -59 41 -92t113 -33q88 0 150.5 51t62.5 135q0 59 -46 89t-124 30h-35l29 100h51q98 0 163.5 41t65.5 127q0 57 -40 85t-105 28q-70 0 -118 -35t-75 -113h-133q35 125 126 185.5t218 60.5q111 0 184.5 -50t73.5 -148 q0 -92 -61.5 -156t-151.5 -82q51 -23 80 -62.5t29 -95.5q0 -68 -29.5 -121t-79 -91t-113 -58.5t-132.5 -20.5q-121 0 -200 54.5t-79 152.5zM399 -49q244 387 485.5 770t485.5 770h133q-242 -387 -483.5 -770t-484.5 -770h-136zM1028 186l33 117l543 553h159l-172 -573h148 l-33 -97h-141l-58 -186h-127l56 186h-408zM1180 283h286l131 432z" />
<glyph unicode="&#xbf;" horiz-adv-x="1067" d="M-80 -150q0 94 42 171t105.5 141.5t138.5 118t142 102.5q72 53 104.5 92t53.5 96q8 23 19.5 66t21.5 82h158q-6 -25 -14.5 -56.5t-17.5 -64.5t-19.5 -64.5t-20.5 -54.5q-23 -47 -63 -87t-93 -81q-55 -43 -117.5 -88t-116 -95t-89 -108.5t-35.5 -128.5q0 -47 19.5 -79.5 t51 -54t72.5 -32t86 -10.5q61 0 121.5 11.5t120.5 29.5l-41 -151q-63 -14 -126 -23.5t-126 -9.5q-72 0 -140.5 14.5t-120.5 47t-84 86t-32 130.5zM571 883l60 194h205l-62 -194h-203z" />
<glyph unicode="&#xc0;" horiz-adv-x="1417" d="M-184 0l1020 1481h215l184 -1481h-193l-43 391h-718l-261 -391h-204zM375 535h606l-80 788zM735 1862h205l154 -297h-131z" />
<glyph unicode="&#xc1;" horiz-adv-x="1417" d="M-184 0l1020 1481h215l184 -1481h-193l-43 391h-718l-261 -391h-204zM375 535h606l-80 788zM797 1565l256 297h213l-332 -297h-137z" />
<glyph unicode="&#xc2;" horiz-adv-x="1417" d="M-184 0l1020 1481h215l184 -1481h-193l-43 391h-718l-261 -391h-204zM375 535h606l-80 788zM635 1565l293 293h174l162 -293h-144l-121 202l-211 -202h-153z" />
<glyph unicode="&#xc3;" horiz-adv-x="1417" d="M-184 0l1020 1481h215l184 -1481h-193l-43 391h-718l-261 -391h-204zM375 535h606l-80 788zM600 1589q25 98 85 157.5t144 59.5q23 0 41.5 -4t40.5 -14q4 0 15.5 -6t25 -12.5t25.5 -12.5l16 -8q49 -23 71.5 -32t47.5 -9q35 0 59.5 25.5t40.5 70.5h99 q-25 -94 -85.5 -155.5t-138.5 -61.5q-55 0 -116 33q-2 0 -13.5 6t-23.5 12.5t-23.5 12.5t-13.5 6q-39 18 -56.5 23.5t-37.5 5.5q-72 0 -107 -97h-96z" />
<glyph unicode="&#xc4;" horiz-adv-x="1417" d="M-184 0l1020 1481h215l184 -1481h-193l-43 391h-718l-261 -391h-204zM375 535h606l-80 788zM698 1655l58 180h172l-58 -180h-172zM1071 1655l57 180h172l-57 -180h-172z" />
<glyph unicode="&#xc5;" horiz-adv-x="1417" d="M-184 0l1020 1481h215l184 -1481h-193l-43 391h-718l-261 -391h-204zM375 535h606l-80 788zM766 1745q0 43 16.5 81t45 65.5t65.5 43t80 15.5q88 0 147.5 -59.5t59.5 -145.5q0 -43 -16.5 -81t-44 -65.5t-65.5 -44t-81 -16.5t-80 16.5t-65.5 44t-45 65.5t-16.5 81z M844 1745q0 -53 38 -91t91 -38t90 38t37 91t-37 91t-90 38t-91 -38t-38 -91z" />
<glyph unicode="&#xc6;" horiz-adv-x="1980" d="M-203 0l1186 1481h1090l-48 -152h-763l-72 -493h653l-45 -148h-631l-75 -536h612l-45 -152h-780l55 383h-619l-303 -383h-215zM424 526h534l121 834l4 6t-4 -5t-38.5 -50t-103.5 -131.5t-196 -250t-317 -403.5z" />
<glyph unicode="&#xc7;" horiz-adv-x="1361" d="M76 465q0 98 20.5 201.5t57 205t90 193.5t118.5 168q117 131 259.5 199.5t318.5 68.5q209 0 332 -90t123 -258q0 -23 -2 -41t-7 -45h-202q4 29 5 45t1 33q0 98 -74 153.5t-194 55.5q-129 0 -240 -65.5t-197 -188.5q-96 -137 -150 -303t-54 -330q0 -66 19 -127t61 -108.5 t106.5 -76t153.5 -28.5q125 0 222 64.5t144 181.5h207q-80 -211 -233.5 -302t-395.5 -91l-84 -101q41 8 72 8q68 0 111 -34.5t43 -94.5q0 -43 -20.5 -76.5t-55.5 -56t-81 -34t-97 -11.5q-55 0 -100.5 11.5t-92.5 33.5l35 66q70 -41 162 -41q53 0 88 23.5t35 70.5 q0 37 -30 57.5t-75 20.5q-33 0 -76 -17l-34 29l131 154q-109 18 -189 62t-131 106.5t-75.5 141.5t-24.5 167z" />
<glyph unicode="&#xc8;" horiz-adv-x="1267" d="M-2 0l434 1481h928l-47 -152h-731l-148 -493h696l-43 -146h-694l-160 -538h758l-45 -152h-948zM719 1862h205l153 -297h-131z" />
<glyph unicode="&#xc9;" horiz-adv-x="1267" d="M-2 0l434 1481h928l-47 -152h-731l-148 -493h696l-43 -146h-694l-160 -538h758l-45 -152h-948zM776 1565l256 297h213l-332 -297h-137z" />
<glyph unicode="&#xca;" horiz-adv-x="1267" d="M-2 0l434 1481h928l-47 -152h-731l-148 -493h696l-43 -146h-694l-160 -538h758l-45 -152h-948zM602 1565l293 293h174l162 -293h-144l-120 202l-211 -202h-154z" />
<glyph unicode="&#xcb;" horiz-adv-x="1267" d="M-2 0l434 1481h928l-47 -152h-731l-148 -493h696l-43 -146h-694l-160 -538h758l-45 -152h-948zM653 1655l58 180h172l-58 -180h-172zM1026 1655l57 180h172l-57 -180h-172z" />
<glyph unicode="&#xcc;" horiz-adv-x="622" d="M-2 0l434 1481h193l-435 -1481h-192zM338 1862h205l153 -297h-131z" />
<glyph unicode="&#xcd;" horiz-adv-x="622" d="M-2 0l434 1481h193l-435 -1481h-192zM410 1565l256 297h213l-332 -297h-137z" />
<glyph unicode="&#xce;" horiz-adv-x="622" d="M-2 0l434 1481h193l-435 -1481h-192zM231 1565l293 293h174l162 -293h-143l-121 202l-211 -202h-154z" />
<glyph unicode="&#xcf;" horiz-adv-x="622" d="M-2 0l434 1481h193l-435 -1481h-192zM293 1655l57 180h172l-57 -180h-172zM666 1655l57 180h172l-57 -180h-172z" />
<glyph unicode="&#xd0;" horiz-adv-x="1536" d="M-2 0l223 756h-141l33 116h143l178 609h432q129 0 238.5 -29t189.5 -89t126 -155.5t46 -230.5q0 -141 -35.5 -280.5t-101.5 -262.5q-68 -133 -172 -229t-235 -146q-154 -59 -412 -59h-512zM236 150h249q53 0 92 1t70 4t56.5 7t54.5 12q129 35 220 107.5t159 199.5 q59 111 94 238t35 244q0 106 -34 176.5t-93.5 113.5t-143.5 60.5t-182 17.5h-231l-136 -459h410l-33 -116h-409z" />
<glyph unicode="&#xd1;" horiz-adv-x="1617" d="M6 0l432 1481h271l346 -1317l381 1317h184l-438 -1481h-271l-342 1313l-379 -1313h-184zM725 1589q25 98 86 157.5t143 59.5q23 0 41.5 -4t40.5 -14q4 0 15.5 -6t26 -12.5t26.5 -12.5t14 -8q49 -23 71.5 -32t47.5 -9q35 0 59.5 25.5t40.5 70.5h99q-25 -94 -85.5 -155.5 t-138.5 -61.5q-55 0 -116 33q-2 0 -13.5 6t-23.5 12.5t-23.5 12.5t-13.5 6q-39 18 -56.5 23.5t-37.5 5.5q-72 0 -107 -97h-96z" />
<glyph unicode="&#xd2;" horiz-adv-x="1552" d="M76 485q0 188 65.5 372.5t175.5 332.5q111 143 264.5 226t364.5 83q125 0 224.5 -34.5t169 -100.5t106.5 -159t37 -210q0 -92 -17.5 -184t-48.5 -181t-72.5 -169t-91.5 -148q-115 -160 -266 -249t-369 -89q-123 0 -223 35t-170.5 100.5t-109.5 161t-39 213.5zM272 494 q0 -166 94.5 -267.5t268.5 -101.5q125 0 234.5 61.5t195.5 169.5q104 135 160.5 301t56.5 326q0 168 -89 268.5t-265 100.5q-160 0 -283 -84t-215 -238q-37 -61 -65.5 -130t-49 -139.5t-32 -139t-11.5 -127.5zM817 1862h205l154 -297h-132z" />
<glyph unicode="&#xd3;" horiz-adv-x="1552" d="M76 485q0 188 65.5 372.5t175.5 332.5q111 143 264.5 226t364.5 83q125 0 224.5 -34.5t169 -100.5t106.5 -159t37 -210q0 -92 -17.5 -184t-48.5 -181t-72.5 -169t-91.5 -148q-115 -160 -266 -249t-369 -89q-123 0 -223 35t-170.5 100.5t-109.5 161t-39 213.5zM272 494 q0 -166 94.5 -267.5t268.5 -101.5q125 0 234.5 61.5t195.5 169.5q104 135 160.5 301t56.5 326q0 168 -89 268.5t-265 100.5q-160 0 -283 -84t-215 -238q-37 -61 -65.5 -130t-49 -139.5t-32 -139t-11.5 -127.5zM872 1565l256 297h213l-331 -297h-138z" />
<glyph unicode="&#xd4;" horiz-adv-x="1552" d="M76 485q0 188 65.5 372.5t175.5 332.5q111 143 264.5 226t364.5 83q125 0 224.5 -34.5t169 -100.5t106.5 -159t37 -210q0 -92 -17.5 -184t-48.5 -181t-72.5 -169t-91.5 -148q-115 -160 -266 -249t-369 -89q-123 0 -223 35t-170.5 100.5t-109.5 161t-39 213.5zM272 494 q0 -166 94.5 -267.5t268.5 -101.5q125 0 234.5 61.5t195.5 169.5q104 135 160.5 301t56.5 326q0 168 -89 268.5t-265 100.5q-160 0 -283 -84t-215 -238q-37 -61 -65.5 -130t-49 -139.5t-32 -139t-11.5 -127.5zM698 1565l293 293h174l162 -293h-143l-121 202l-211 -202h-154z " />
<glyph unicode="&#xd5;" horiz-adv-x="1552" d="M76 485q0 188 65.5 372.5t175.5 332.5q111 143 264.5 226t364.5 83q125 0 224.5 -34.5t169 -100.5t106.5 -159t37 -210q0 -92 -17.5 -184t-48.5 -181t-72.5 -169t-91.5 -148q-115 -160 -266 -249t-369 -89q-123 0 -223 35t-170.5 100.5t-109.5 161t-39 213.5zM272 494 q0 -166 94.5 -267.5t268.5 -101.5q125 0 234.5 61.5t195.5 169.5q104 135 160.5 301t56.5 326q0 168 -89 268.5t-265 100.5q-160 0 -283 -84t-215 -238q-37 -61 -65.5 -130t-49 -139.5t-32 -139t-11.5 -127.5zM686 1589q27 98 87.5 157.5t141.5 59.5q23 0 42.5 -4t39.5 -14 q4 0 16.5 -6t26 -12.5t25.5 -12.5t14 -8q51 -23 73 -32t46 -9q35 0 59.5 25.5t40.5 70.5h99q-23 -94 -83.5 -155.5t-139.5 -61.5q-51 0 -117 33q-2 0 -13.5 6t-23.5 12.5t-22.5 12.5t-14.5 6q-37 18 -54.5 23.5t-39.5 5.5q-72 0 -107 -97h-96z" />
<glyph unicode="&#xd6;" horiz-adv-x="1552" d="M76 485q0 188 65.5 372.5t175.5 332.5q111 143 264.5 226t364.5 83q125 0 224.5 -34.5t169 -100.5t106.5 -159t37 -210q0 -92 -17.5 -184t-48.5 -181t-72.5 -169t-91.5 -148q-115 -160 -266 -249t-369 -89q-123 0 -223 35t-170.5 100.5t-109.5 161t-39 213.5zM272 494 q0 -166 94.5 -267.5t268.5 -101.5q125 0 234.5 61.5t195.5 169.5q104 135 160.5 301t56.5 326q0 168 -89 268.5t-265 100.5q-160 0 -283 -84t-215 -238q-37 -61 -65.5 -130t-49 -139.5t-32 -139t-11.5 -127.5zM750 1655l57 180h172l-57 -180h-172zM1122 1655l58 180h172 l-58 -180h-172z" />
<glyph unicode="&#xd7;" horiz-adv-x="1290" d="M96 121l389 387l-389 387l109 106l385 -387l387 385l106 -104l-385 -387l385 -387l-104 -107l-389 387l-385 -385z" />
<glyph unicode="&#xd8;" horiz-adv-x="1552" d="M-49 25l194 180q-70 121 -69 280q0 188 64.5 372.5t176.5 332.5q111 143 263.5 226t359.5 83q274 0 424 -160l197 183l65 -78l-205 -189q61 -117 62 -262q0 -90 -18.5 -183t-49.5 -181t-73 -168t-89 -148q-113 -158 -266 -248t-371 -90q-258 0 -407 150l-193 -178z M272 494q0 -82 27 -150l926 868q-94 141 -297 142q-160 0 -284 -84t-216 -240q-37 -61 -65.5 -130t-48 -139.5t-31 -139t-11.5 -127.5zM344 250q47 -59 121 -92t170 -33q125 0 233.5 61.5t194.5 169.5q104 135 161.5 302t57.5 325q0 35 -5 64.5t-15 62.5z" />
<glyph unicode="&#xd9;" horiz-adv-x="1540" d="M102 377q0 70 15.5 153.5t36.5 149.5l237 801h195l-258 -881q-20 -66 -28.5 -113t-8.5 -88q0 -125 82 -199.5t241 -74.5q131 0 232.5 54t163.5 155q41 68 70.5 148.5t52.5 160.5l245 838h193l-266 -897q-23 -72 -47.5 -140.5t-53.5 -124.5q-88 -170 -244.5 -256 t-375.5 -86q-227 0 -354.5 106.5t-127.5 293.5zM805 1862h205l153 -297h-131z" />
<glyph unicode="&#xda;" horiz-adv-x="1540" d="M102 377q0 70 15.5 153.5t36.5 149.5l237 801h195l-258 -881q-20 -66 -28.5 -113t-8.5 -88q0 -125 82 -199.5t241 -74.5q131 0 232.5 54t163.5 155q41 68 70.5 148.5t52.5 160.5l245 838h193l-266 -897q-23 -72 -47.5 -140.5t-53.5 -124.5q-88 -170 -244.5 -256 t-375.5 -86q-227 0 -354.5 106.5t-127.5 293.5zM852 1565l256 297h213l-332 -297h-137z" />
<glyph unicode="&#xdb;" horiz-adv-x="1540" d="M102 377q0 70 15.5 153.5t36.5 149.5l237 801h195l-258 -881q-20 -66 -28.5 -113t-8.5 -88q0 -125 82 -199.5t241 -74.5q131 0 232.5 54t163.5 155q41 68 70.5 148.5t52.5 160.5l245 838h193l-266 -897q-23 -72 -47.5 -140.5t-53.5 -124.5q-88 -170 -244.5 -256 t-375.5 -86q-227 0 -354.5 106.5t-127.5 293.5zM682 1565l293 293h174l162 -293h-144l-120 202l-211 -202h-154z" />
<glyph unicode="&#xdc;" horiz-adv-x="1540" d="M102 377q0 70 15.5 153.5t36.5 149.5l237 801h195l-258 -881q-20 -66 -28.5 -113t-8.5 -88q0 -125 82 -199.5t241 -74.5q131 0 232.5 54t163.5 155q41 68 70.5 148.5t52.5 160.5l245 838h193l-266 -897q-23 -72 -47.5 -140.5t-53.5 -124.5q-88 -170 -244.5 -256 t-375.5 -86q-227 0 -354.5 106.5t-127.5 293.5zM739 1655l58 180h172l-58 -180h-172zM1112 1655l57 180h172l-57 -180h-172z" />
<glyph unicode="&#xdd;" d="M141 1481h209l264 -709l584 709h223l-755 -867l-181 -614h-192l188 633zM643 1565l256 297h213l-332 -297h-137z" />
<glyph unicode="&#xde;" horiz-adv-x="1292" d="M-2 0l434 1481h191l-78 -267h303q88 0 163.5 -21.5t131 -63.5t86.5 -104t31 -146q0 -141 -67 -257t-179 -182q-70 -41 -157 -58t-224 -17h-338l-107 -365h-190zM340 514h313q111 0 173.5 18.5t115.5 65.5q57 51 88 116.5t31 137.5q0 66 -27.5 112t-77.5 70 q-57 29 -194 29h-262z" />
<glyph unicode="&#xdf;" horiz-adv-x="1280" d="M-59 0q92 297 148 485.5t89 294.5q37 125 53 187q35 115 78 211t108.5 167.5t162 111.5t237.5 40q92 0 155.5 -18.5t110.5 -55.5q53 -41 79 -97.5t26 -117.5q0 -82 -46 -145.5t-118 -99.5q-2 -4 -19.5 -12.5t-37 -17.5t-37 -16.5t-19.5 -11.5q-47 -23 -66.5 -51.5 t-19.5 -71.5q0 -55 47 -98q25 -25 66 -67t76 -78q47 -49 68.5 -97.5t21.5 -113.5q0 -80 -35 -144.5t-93 -108.5t-137 -68.5t-167 -24.5q-70 0 -130.5 15t-104.5 45t-68.5 72t-24.5 95q0 23 3 44t13 52h181q-10 -33 -14.5 -51t-4.5 -35q0 -53 47 -85t115 -32 q113 0 178.5 55.5t65.5 145.5q0 29 -6.5 52.5t-20.5 46t-36.5 47t-55.5 57.5q-2 4 -14.5 15t-26.5 25.5t-25.5 26t-13.5 15.5q-51 53 -71.5 93t-20.5 93q0 74 45 130.5t125 94.5q2 2 12 7.5t21.5 9.5t21.5 9t12 7q68 33 100 74t32 102q0 76 -54.5 124t-156.5 48 q-117 0 -188.5 -64.5t-119.5 -154.5q-6 -12 -15 -33.5t-18.5 -46t-18.5 -48t-13 -40.5q-63 -213 -123 -403q-33 -113 -55.5 -187.5t-45 -148.5t-43 -140.5t-34.5 -113.5h-180z" />
<glyph unicode="&#xe0;" horiz-adv-x="1099" d="M-51 238q0 111 59.5 191.5t159.5 127.5q66 31 149.5 46t206.5 24q20 2 38 2t41.5 1t57 1t84.5 2l15 57q14 55 14 96q0 72 -46 113t-144 41q-104 0 -170 -47t-86 -133h-178q23 145 144.5 219t303.5 74q160 0 255 -61.5t95 -184.5q0 -41 -9 -90t-26 -111q-6 -18 -15 -51 t-19.5 -67.5t-20.5 -67.5t-16 -51q-12 -41 -25.5 -88.5t-25.5 -96.5q-10 -47 -19.5 -94t-17.5 -90h-172q0 6 3 26.5t7 45t8 46t6 27.5q-80 -86 -171 -124.5t-189 -38.5q-125 0 -211 64.5t-86 191.5zM131 256q0 -78 46 -118t130 -40q92 0 165 52.5t126 123.5q23 31 42 67 t42 91q4 10 5 13.5t3 9.5t7.5 21t17.5 48q-35 -2 -73 -3t-73 -3q-111 -8 -180.5 -21.5t-122.5 -41.5q-63 -35 -99 -85.5t-36 -113.5zM455 1483h204l154 -297h-131z" />
<glyph unicode="&#xe1;" horiz-adv-x="1099" d="M-51 238q0 111 59.5 191.5t159.5 127.5q66 31 149.5 46t206.5 24q20 2 38 2t41.5 1t57 1t84.5 2l15 57q14 55 14 96q0 72 -46 113t-144 41q-104 0 -170 -47t-86 -133h-178q23 145 144.5 219t303.5 74q160 0 255 -61.5t95 -184.5q0 -41 -9 -90t-26 -111q-6 -18 -15 -51 t-19.5 -67.5t-20.5 -67.5t-16 -51q-12 -41 -25.5 -88.5t-25.5 -96.5q-10 -47 -19.5 -94t-17.5 -90h-172q0 6 3 26.5t7 45t8 46t6 27.5q-80 -86 -171 -124.5t-189 -38.5q-125 0 -211 64.5t-86 191.5zM131 256q0 -78 46 -118t130 -40q92 0 165 52.5t126 123.5q23 31 42 67 t42 91q4 10 5 13.5t3 9.5t7.5 21t17.5 48q-35 -2 -73 -3t-73 -3q-111 -8 -180.5 -21.5t-122.5 -41.5q-63 -35 -99 -85.5t-36 -113.5zM537 1186l256 297h213l-332 -297h-137z" />
<glyph unicode="&#xe2;" horiz-adv-x="1099" d="M-51 238q0 111 59.5 191.5t159.5 127.5q66 31 149.5 46t206.5 24q20 2 38 2t41.5 1t57 1t84.5 2l15 57q14 55 14 96q0 72 -46 113t-144 41q-104 0 -170 -47t-86 -133h-178q23 145 144.5 219t303.5 74q160 0 255 -61.5t95 -184.5q0 -41 -9 -90t-26 -111q-6 -18 -15 -51 t-19.5 -67.5t-20.5 -67.5t-16 -51q-12 -41 -25.5 -88.5t-25.5 -96.5q-10 -47 -19.5 -94t-17.5 -90h-172q0 6 3 26.5t7 45t8 46t6 27.5q-80 -86 -171 -124.5t-189 -38.5q-125 0 -211 64.5t-86 191.5zM131 256q0 -78 46 -118t130 -40q92 0 165 52.5t126 123.5q23 31 42 67 t42 91q4 10 5 13.5t3 9.5t7.5 21t17.5 48q-35 -2 -73 -3t-73 -3q-111 -8 -180.5 -21.5t-122.5 -41.5q-63 -35 -99 -85.5t-36 -113.5zM356 1186l293 293h174l162 -293h-143l-121 203l-211 -203h-154z" />
<glyph unicode="&#xe3;" horiz-adv-x="1099" d="M-51 238q0 111 59.5 191.5t159.5 127.5q66 31 149.5 46t206.5 24q20 2 38 2t41.5 1t57 1t84.5 2l15 57q14 55 14 96q0 72 -46 113t-144 41q-104 0 -170 -47t-86 -133h-178q23 145 144.5 219t303.5 74q160 0 255 -61.5t95 -184.5q0 -41 -9 -90t-26 -111q-6 -18 -15 -51 t-19.5 -67.5t-20.5 -67.5t-16 -51q-12 -41 -25.5 -88.5t-25.5 -96.5q-10 -47 -19.5 -94t-17.5 -90h-172q0 6 3 26.5t7 45t8 46t6 27.5q-80 -86 -171 -124.5t-189 -38.5q-125 0 -211 64.5t-86 191.5zM131 256q0 -78 46 -118t130 -40q92 0 165 52.5t126 123.5q23 31 42 67 t42 91q4 10 5 13.5t3 9.5t7.5 21t17.5 48q-35 -2 -73 -3t-73 -3q-111 -8 -180.5 -21.5t-122.5 -41.5q-63 -35 -99 -85.5t-36 -113.5zM338 1210q25 98 86 157.5t143 59.5q39 0 82 -18q4 0 15.5 -6t26 -13.5t26.5 -13.5t14 -6q49 -25 71.5 -33t47.5 -8q68 0 100 96h99 q-25 -96 -85.5 -156.5t-138.5 -60.5q-55 0 -116 33q-2 0 -13.5 6t-24 12.5t-23.5 11.5t-13 7q-39 18 -56.5 23.5t-37.5 5.5q-72 0 -107 -97h-96z" />
<glyph unicode="&#xe4;" horiz-adv-x="1099" d="M-51 238q0 111 59.5 191.5t159.5 127.5q66 31 149.5 46t206.5 24q20 2 38 2t41.5 1t57 1t84.5 2l15 57q14 55 14 96q0 72 -46 113t-144 41q-104 0 -170 -47t-86 -133h-178q23 145 144.5 219t303.5 74q160 0 255 -61.5t95 -184.5q0 -41 -9 -90t-26 -111q-6 -18 -15 -51 t-19.5 -67.5t-20.5 -67.5t-16 -51q-12 -41 -25.5 -88.5t-25.5 -96.5q-10 -47 -19.5 -94t-17.5 -90h-172q0 6 3 26.5t7 45t8 46t6 27.5q-80 -86 -171 -124.5t-189 -38.5q-125 0 -211 64.5t-86 191.5zM131 256q0 -78 46 -118t130 -40q92 0 165 52.5t126 123.5q23 31 42 67 t42 91q4 10 5 13.5t3 9.5t7.5 21t17.5 48q-35 -2 -73 -3t-73 -3q-111 -8 -180.5 -21.5t-122.5 -41.5q-63 -35 -99 -85.5t-36 -113.5zM418 1276l57 180h172l-57 -180h-172zM791 1276l57 180h172l-57 -180h-172z" />
<glyph unicode="&#xe5;" horiz-adv-x="1099" d="M-51 238q0 111 59.5 191.5t159.5 127.5q66 31 149.5 46t206.5 24q20 2 38 2t41.5 1t57 1t84.5 2l15 57q14 55 14 96q0 72 -46 113t-144 41q-104 0 -170 -47t-86 -133h-178q23 145 144.5 219t303.5 74q160 0 255 -61.5t95 -184.5q0 -41 -9 -90t-26 -111q-6 -18 -15 -51 t-19.5 -67.5t-20.5 -67.5t-16 -51q-12 -41 -25.5 -88.5t-25.5 -96.5q-10 -47 -19.5 -94t-17.5 -90h-172q0 6 3 26.5t7 45t8 46t6 27.5q-80 -86 -171 -124.5t-189 -38.5q-125 0 -211 64.5t-86 191.5zM131 256q0 -78 46 -118t130 -40q92 0 165 52.5t126 123.5q23 31 42 67 t42 91q4 10 5 13.5t3 9.5t7.5 21t17.5 48q-35 -2 -73 -3t-73 -3q-111 -8 -180.5 -21.5t-122.5 -41.5q-63 -35 -99 -85.5t-36 -113.5zM504 1370q0 43 16.5 81t45 65.5t65.5 43t80 15.5q88 0 147.5 -59.5t59.5 -145.5q0 -43 -16.5 -81t-44.5 -65.5t-65.5 -44t-80.5 -16.5 t-80 16.5t-65.5 44t-45 65.5t-16.5 81zM582 1370q0 -53 37.5 -91t91.5 -38q53 0 90 38t37 91t-37 91t-90 38t-91 -38t-38 -91z" />
<glyph unicode="&#xe6;" horiz-adv-x="1742" d="M-51 246q0 127 60.5 197.5t148.5 106.5t190.5 44t183.5 8h189l6 23q4 8 7 18t5 16q20 70 21 121q0 72 -44 116t-130 44q-88 0 -153.5 -49t-94.5 -129h-188q18 72 60 127t103.5 92t137 56.5t157.5 19.5q135 0 211 -50.5t86 -134.5q63 90 153.5 137.5t219.5 47.5 q166 0 255 -85t89 -249q0 -59 -11.5 -117.5t-29.5 -118.5h-721q-20 -66 -26.5 -93t-6.5 -62q0 -100 61.5 -165t166.5 -65q96 0 168.5 56.5t103.5 148.5h197q-55 -160 -182.5 -243.5t-292.5 -83.5q-135 0 -219.5 53t-124.5 176q-70 -121 -174.5 -175t-247.5 -54 q-70 0 -131.5 16t-106.5 50t-70.5 83t-25.5 117zM133 248q0 -74 50 -114t132 -40q92 0 156 50.5t119 136.5q29 45 51.5 87t48.5 119h-151q-55 0 -126 -4t-133.5 -27.5t-104.5 -71.5t-42 -136zM897 602h530q6 31 10.5 50.5t6.5 34.5t3 27.5t1 28.5q0 86 -51 137.5t-144 51.5 q-76 0 -139 -34t-110 -93q-33 -43 -55.5 -87t-51.5 -116z" />
<glyph unicode="&#xe7;" horiz-adv-x="1064" d="M0 344q0 152 60.5 295t162.5 244q90 86 194.5 128t233.5 42q152 0 250 -65.5t98 -190.5q0 -25 -3 -50.5t-13 -66.5h-176q14 55 14 94q0 78 -47 120t-139 42q-109 0 -198 -63.5t-150 -170.5q-47 -80 -76 -176t-29 -184q0 -111 59.5 -175.5t176.5 -64.5q111 0 186.5 57.5 t110.5 159.5h182q-53 -156 -177 -246.5t-302 -90.5q-2 -2 -12.5 -1t-12.5 1l-86 -103q41 8 70 8q68 0 110.5 -34.5t42.5 -94.5q0 -43 -20.5 -76.5t-55 -56t-80.5 -34t-98 -11.5q-55 0 -100 11.5t-92 33.5l35 66q70 -41 162 -41q53 0 87.5 23.5t34.5 70.5q0 37 -28.5 57.5 t-73.5 20.5q-33 0 -76 -17l-35 29l129 152q-156 23 -237.5 118t-81.5 240z" />
<glyph unicode="&#xe8;" horiz-adv-x="1105" d="M0 315q0 74 16.5 152t46 153.5t71.5 143t93 121.5q84 88 186.5 130t219.5 42q160 0 256 -82t96 -234q0 -61 -11 -122.5t-38 -133.5h-733q-25 -86 -25 -161q0 -106 55.5 -166t172.5 -60q109 0 177 51.5t122 157.5h186q-137 -330 -481 -330q-193 0 -301.5 92.5 t-108.5 245.5zM240 602h546q14 47 18.5 72.5t4.5 60.5q0 86 -45 141.5t-146 55.5q-174 0 -286 -150q-29 -37 -50.5 -82t-41.5 -98zM477 1483h205l154 -297h-131z" />
<glyph unicode="&#xe9;" horiz-adv-x="1105" d="M0 315q0 74 16.5 152t46 153.5t71.5 143t93 121.5q84 88 186.5 130t219.5 42q160 0 256 -82t96 -234q0 -61 -11 -122.5t-38 -133.5h-733q-25 -86 -25 -161q0 -106 55.5 -166t172.5 -60q109 0 177 51.5t122 157.5h186q-137 -330 -481 -330q-193 0 -301.5 92.5 t-108.5 245.5zM240 602h546q14 47 18.5 72.5t4.5 60.5q0 86 -45 141.5t-146 55.5q-174 0 -286 -150q-29 -37 -50.5 -82t-41.5 -98zM575 1186l256 297h213l-331 -297h-138z" />
<glyph unicode="&#xea;" horiz-adv-x="1105" d="M0 315q0 74 16.5 152t46 153.5t71.5 143t93 121.5q84 88 186.5 130t219.5 42q160 0 256 -82t96 -234q0 -61 -11 -122.5t-38 -133.5h-733q-25 -86 -25 -161q0 -106 55.5 -166t172.5 -60q109 0 177 51.5t122 157.5h186q-137 -330 -481 -330q-193 0 -301.5 92.5 t-108.5 245.5zM240 602h546q14 47 18.5 72.5t4.5 60.5q0 86 -45 141.5t-146 55.5q-174 0 -286 -150q-29 -37 -50.5 -82t-41.5 -98zM389 1186l293 293h174l162 -293h-144l-120 203l-211 -203h-154z" />
<glyph unicode="&#xeb;" horiz-adv-x="1105" d="M0 315q0 74 16.5 152t46 153.5t71.5 143t93 121.5q84 88 186.5 130t219.5 42q160 0 256 -82t96 -234q0 -61 -11 -122.5t-38 -133.5h-733q-25 -86 -25 -161q0 -106 55.5 -166t172.5 -60q109 0 177 51.5t122 157.5h186q-137 -330 -481 -330q-193 0 -301.5 92.5 t-108.5 245.5zM240 602h546q14 47 18.5 72.5t4.5 60.5q0 86 -45 141.5t-146 55.5q-174 0 -286 -150q-29 -37 -50.5 -82t-41.5 -98zM459 1276l57 180h172l-57 -180h-172zM831 1276l58 180h172l-57 -180h-173z" />
<glyph unicode="&#xec;" horiz-adv-x="491" d="M-59 0l301 1032h180l-301 -1032h-180zM190 1483h205l154 -297h-131z" />
<glyph unicode="&#xed;" horiz-adv-x="491" d="M-59 0l301 1032h180l-301 -1032h-180zM254 1186l256 297h213l-332 -297h-137z" />
<glyph unicode="&#xee;" horiz-adv-x="491" d="M-59 0l301 1032h180l-301 -1032h-180zM61 1186l293 293h174l162 -293h-143l-121 203l-211 -203h-154z" />
<glyph unicode="&#xef;" horiz-adv-x="491" d="M-59 0l301 1032h180l-301 -1032h-180zM123 1276l57 180h172l-57 -180h-172zM496 1276l57 180h172l-57 -180h-172z" />
<glyph unicode="&#xf0;" horiz-adv-x="1167" d="M0 385q0 121 42 234.5t119 200.5t184.5 139.5t238.5 52.5q254 0 311 -232q2 63 0 101q-10 129 -63.5 236.5t-159.5 182.5l-203 -114l-63 63l182 103q-43 23 -82 37t-94 30l80 115l2 2q80 -20 132 -40.5t111 -53.5l199 114l68 -61q-80 -45 -119 -66.5t-54 -29.5 q-18 -10 -14 -8q129 -94 190.5 -229.5t61.5 -309.5q0 -82 -11 -169t-36 -171t-62.5 -162t-91.5 -143q-92 -117 -205.5 -173.5t-259.5 -56.5q-193 0 -298 105.5t-105 302.5zM184 358q0 -117 64.5 -185.5t177.5 -68.5q98 0 183 55.5t145 149.5q45 74 70.5 163t25.5 169 q0 117 -66.5 184.5t-189.5 67.5q-102 0 -183 -52.5t-135 -142.5q-43 -74 -67.5 -166t-24.5 -174z" />
<glyph unicode="&#xf1;" horiz-adv-x="1193" d="M-59 0l229 766q18 61 36.5 131t35.5 135h180l-45 -168q88 96 179 142.5t198 46.5q133 0 208.5 -66.5t75.5 -181.5q0 -47 -14 -108.5t-29 -108.5l-174 -588h-180l180 602q14 47 23.5 90t9.5 82q0 66 -42 106t-120 40q-133 0 -254 -117q-59 -57 -97 -125t-65 -156 l-155 -522h-180zM399 1210q27 98 87.5 157.5t142.5 59.5q43 0 82 -18q4 0 15 -6t25.5 -13.5t27 -13.5t14.5 -6q51 -23 72.5 -32t45.5 -9q68 0 101 96h98q-23 -94 -83 -155.5t-140 -61.5q-51 0 -117 33q-2 0 -13.5 6t-23.5 12.5t-22.5 12.5t-14.5 6q-37 18 -54 23.5t-40 5.5 q-72 0 -106 -97h-97z" />
<glyph unicode="&#xf2;" horiz-adv-x="1167" d="M0 358q0 141 48 271.5t134 226.5q90 102 205 151.5t250 49.5q193 0 300 -99.5t107 -267.5q0 -135 -45 -264t-120 -231q-78 -106 -196 -160.5t-269 -54.5q-201 0 -307.5 102t-106.5 276zM182 350q0 -117 66.5 -182.5t183.5 -65.5q111 0 198 61.5t142 178.5q41 82 63.5 172 t22.5 168q0 123 -59.5 187.5t-182.5 64.5q-104 0 -186 -56.5t-143 -158.5q-51 -86 -78 -182.5t-27 -186.5zM508 1483h205l153 -297h-131z" />
<glyph unicode="&#xf3;" horiz-adv-x="1167" d="M0 358q0 141 48 271.5t134 226.5q90 102 205 151.5t250 49.5q193 0 300 -99.5t107 -267.5q0 -135 -45 -264t-120 -231q-78 -106 -196 -160.5t-269 -54.5q-201 0 -307.5 102t-106.5 276zM182 350q0 -117 66.5 -182.5t183.5 -65.5q111 0 198 61.5t142 178.5q41 82 63.5 172 t22.5 168q0 123 -59.5 187.5t-182.5 64.5q-104 0 -186 -56.5t-143 -158.5q-51 -86 -78 -182.5t-27 -186.5zM584 1186l256 297h213l-332 -297h-137z" />
<glyph unicode="&#xf4;" horiz-adv-x="1167" d="M0 358q0 141 48 271.5t134 226.5q90 102 205 151.5t250 49.5q193 0 300 -99.5t107 -267.5q0 -135 -45 -264t-120 -231q-78 -106 -196 -160.5t-269 -54.5q-201 0 -307.5 102t-106.5 276zM182 350q0 -117 66.5 -182.5t183.5 -65.5q111 0 198 61.5t142 178.5q41 82 63.5 172 t22.5 168q0 123 -59.5 187.5t-182.5 64.5q-104 0 -186 -56.5t-143 -158.5q-51 -86 -78 -182.5t-27 -186.5zM393 1186l293 293h174l162 -293h-143l-121 203l-211 -203h-154z" />
<glyph unicode="&#xf5;" horiz-adv-x="1167" d="M0 358q0 141 48 271.5t134 226.5q90 102 205 151.5t250 49.5q193 0 300 -99.5t107 -267.5q0 -135 -45 -264t-120 -231q-78 -106 -196 -160.5t-269 -54.5q-201 0 -307.5 102t-106.5 276zM182 350q0 -117 66.5 -182.5t183.5 -65.5q111 0 198 61.5t142 178.5q41 82 63.5 172 t22.5 168q0 123 -59.5 187.5t-182.5 64.5q-104 0 -186 -56.5t-143 -158.5q-51 -86 -78 -182.5t-27 -186.5zM385 1210q27 98 87 157.5t142 59.5q39 0 82 -18q4 0 15.5 -6t26 -13.5t26.5 -13.5t14 -6q49 -23 71.5 -32t47.5 -9q68 0 100 96h99q-23 -94 -84.5 -155.5 t-139.5 -61.5q-55 0 -116 33q-2 0 -13.5 6t-23.5 12.5t-22.5 12.5t-14.5 6q-37 18 -55.5 23.5t-38.5 5.5q-72 0 -107 -97h-96z" />
<glyph unicode="&#xf6;" horiz-adv-x="1167" d="M0 358q0 141 48 271.5t134 226.5q90 102 205 151.5t250 49.5q193 0 300 -99.5t107 -267.5q0 -135 -45 -264t-120 -231q-78 -106 -196 -160.5t-269 -54.5q-201 0 -307.5 102t-106.5 276zM182 350q0 -117 66.5 -182.5t183.5 -65.5q111 0 198 61.5t142 178.5q41 82 63.5 172 t22.5 168q0 123 -59.5 187.5t-182.5 64.5q-104 0 -186 -56.5t-143 -158.5q-51 -86 -78 -182.5t-27 -186.5zM465 1276l57 180h172l-57 -180h-172zM838 1276l57 180h172l-57 -180h-172z" />
<glyph unicode="&#xf7;" horiz-adv-x="1290" d="M76 436v144h1038v-144h-1038zM502 23v229h186v-229h-186zM502 762v229h186v-229h-186z" />
<glyph unicode="&#xf8;" horiz-adv-x="1167" d="M-80 2l143 133q-63 96 -63 223q0 141 48 271.5t134 226.5q90 102 205 151.5t250 49.5q197 0 305 -105l143 133l68 -65l-154 -141q45 -85 45 -189q0 -135 -45 -264t-120 -231q-78 -106 -196 -160.5t-269 -54.5q-182 0 -289 88l-141 -129zM182 350q0 -51 13 -92l626 582 q-59 94 -205 94q-104 0 -186 -56.5t-143 -158.5q-51 -86 -78 -182.5t-27 -186.5zM242 176q68 -74 190 -74q111 0 198 61.5t142 178.5q41 82 63.5 172t22.5 168q0 16 -1 31.5t-3 29.5z" />
<glyph unicode="&#xf9;" horiz-adv-x="1189" d="M4 227q0 47 14.5 108.5t28.5 108.5l174 588h178l-178 -602q-10 -39 -21.5 -87t-11.5 -87q0 -66 39 -104.5t121 -38.5q135 0 256 116q59 57 97 128t63 153l158 522h180l-230 -766q-23 -74 -39 -137t-32 -129h-180l43 168q-88 -96 -178.5 -142t-196.5 -46q-135 0 -210 66.5 t-75 180.5zM502 1483h205l153 -297h-131z" />
<glyph unicode="&#xfa;" horiz-adv-x="1189" d="M4 227q0 47 14.5 108.5t28.5 108.5l174 588h178l-178 -602q-10 -39 -21.5 -87t-11.5 -87q0 -66 39 -104.5t121 -38.5q135 0 256 116q59 57 97 128t63 153l158 522h180l-230 -766q-23 -74 -39 -137t-32 -129h-180l43 168q-88 -96 -178.5 -142t-196.5 -46q-135 0 -210 66.5 t-75 180.5zM571 1186l256 297h213l-331 -297h-138z" />
<glyph unicode="&#xfb;" horiz-adv-x="1189" d="M4 227q0 47 14.5 108.5t28.5 108.5l174 588h178l-178 -602q-10 -39 -21.5 -87t-11.5 -87q0 -66 39 -104.5t121 -38.5q135 0 256 116q59 57 97 128t63 153l158 522h180l-230 -766q-23 -74 -39 -137t-32 -129h-180l43 168q-88 -96 -178.5 -142t-196.5 -46q-135 0 -210 66.5 t-75 180.5zM387 1186l293 293h174l162 -293h-144l-120 203l-211 -203h-154z" />
<glyph unicode="&#xfc;" horiz-adv-x="1189" d="M4 227q0 47 14.5 108.5t28.5 108.5l174 588h178l-178 -602q-10 -39 -21.5 -87t-11.5 -87q0 -66 39 -104.5t121 -38.5q135 0 256 116q59 57 97 128t63 153l158 522h180l-230 -766q-23 -74 -39 -137t-32 -129h-180l43 168q-88 -96 -178.5 -142t-196.5 -46q-135 0 -210 66.5 t-75 180.5zM446 1276l58 180h172l-58 -180h-172zM819 1276l58 180h172l-58 -180h-172z" />
<glyph unicode="&#xfd;" horiz-adv-x="1036" d="M10 -387l238 379l-193 1042h199l119 -856l520 854h186l-663 -1046l-219 -373h-187zM463 1192l256 297h213l-332 -297h-137z" />
<glyph unicode="&#xfe;" horiz-adv-x="1204" d="M-176 -387l551 1868h178l-170 -586q90 86 177 123t179 37q88 0 151.5 -28t105.5 -77t61.5 -117.5t19.5 -148.5q0 -135 -43 -265t-121 -229q-84 -104 -188 -157t-227 -53q-111 0 -196 49t-128 155l-170 -571h-180zM242 340q0 -102 64.5 -170t172.5 -68q94 0 172 50.5 t137 146.5q51 78 80 178.5t29 188.5q0 119 -50 189.5t-161 70.5q-100 0 -189 -56.5t-151 -167.5q-47 -86 -75.5 -180t-28.5 -182z" />
<glyph unicode="&#xff;" horiz-adv-x="1036" d="M10 -387l238 379l-193 1042h199l119 -856l520 854h186l-663 -1046l-219 -373h-187zM346 1276l57 180h172l-57 -180h-172zM719 1276l57 180h172l-57 -180h-172z" />
<glyph unicode="&#x152;" horiz-adv-x="2011" d="M86 465q0 78 13.5 161t37 163.5t56 158.5t73.5 142q117 184 303.5 297.5t427.5 113.5q82 0 165 -7t165 -11q25 -2 50.5 -2h49.5h680l-49 -152h-655l-146 -493h619l-43 -148h-619l-157 -536h682l-47 -152h-73.5h-129.5h-156h-154.5h-128h-73.5q-39 0 -79 -2t-79 -4 q-45 -2 -89 -4t-89 -2q-125 0 -228.5 27.5t-175 86t-111.5 148.5t-40 215zM283 471q0 -166 104.5 -252t286.5 -86q49 0 96 4t96 13l353 1187q-106 18 -218 19q-139 0 -256.5 -47t-209.5 -146q-63 -68 -111.5 -150.5t-79.5 -171.5t-46 -183.5t-15 -186.5z" />
<glyph unicode="&#x153;" horiz-adv-x="1867" d="M0 324q0 141 48 274t136 234.5t210 163t272 61.5q117 0 194.5 -45t116.5 -129q4 -10 8 -19.5t8 -19.5q61 96 166 154.5t240 58.5q78 0 143.5 -23.5t112.5 -64.5t69.5 -98.5t22.5 -143.5q0 -53 -8 -106.5t-31 -135.5h-723q-16 -47 -22.5 -85t-6.5 -78q0 -98 54.5 -158 t163.5 -60q98 0 169.5 54.5t112.5 148.5h195q-66 -160 -190 -243.5t-290 -83.5q-147 0 -230 55t-118 151q-86 -94 -191.5 -150t-240.5 -56q-92 0 -164.5 25.5t-123 71.5t-77 109.5t-26.5 137.5zM180 319q0 -96 59.5 -156.5t155.5 -60.5q98 0 187.5 60.5t154.5 171.5 q55 92 88 192.5t33 186.5q0 100 -54 159.5t-155 59.5q-80 0 -154.5 -41t-140.5 -119q-39 -47 -71.5 -104.5t-55 -116.5t-35 -118.5t-12.5 -113.5zM1022 604h528q10 39 14.5 67.5t4.5 57.5q0 92 -43 145.5t-140 53.5q-72 0 -134 -31t-109 -84q-37 -43 -64.5 -90t-56.5 -119z " />
<glyph unicode="&#x178;" d="M141 1481h209l264 -709l584 709h223l-755 -867l-181 -614h-192l188 633zM541 1655l57 180h172l-57 -180h-172zM913 1655l58 180h172l-58 -180h-172z" />
<glyph unicode="&#x2c6;" horiz-adv-x="542" d="M90 1186l293 293h174l162 -293h-144l-120 203l-211 -203h-154z" />
<glyph unicode="&#x2dc;" horiz-adv-x="544" d="M80 1210q27 98 87 157.5t142 59.5q43 0 82 -18q4 0 15.5 -6t25.5 -13.5t26.5 -13.5t14.5 -6q49 -23 71.5 -32t47.5 -9q68 0 100 96h99q-23 -94 -83.5 -155.5t-140.5 -61.5q-55 0 -116 33q-2 0 -13.5 6t-24 12.5t-22.5 12.5t-14 6q-37 18 -55.5 23.5t-38.5 5.5 q-72 0 -107 -97h-96z" />
<glyph unicode="&#x2000;" horiz-adv-x="975" />
<glyph unicode="&#x2001;" horiz-adv-x="1950" />
<glyph unicode="&#x2002;" horiz-adv-x="975" />
<glyph unicode="&#x2003;" horiz-adv-x="1950" />
<glyph unicode="&#x2004;" horiz-adv-x="650" />
<glyph unicode="&#x2005;" horiz-adv-x="487" />
<glyph unicode="&#x2006;" horiz-adv-x="325" />
<glyph unicode="&#x2007;" horiz-adv-x="325" />
<glyph unicode="&#x2008;" horiz-adv-x="243" />
<glyph unicode="&#x2009;" horiz-adv-x="390" />
<glyph unicode="&#x200a;" horiz-adv-x="108" />
<glyph unicode="&#x2010;" horiz-adv-x="718" d="M29 477l39 133h528l-39 -133h-528z" />
<glyph unicode="&#x2011;" horiz-adv-x="718" d="M29 477l39 133h528l-39 -133h-528z" />
<glyph unicode="&#x2012;" horiz-adv-x="718" d="M29 477l39 133h528l-39 -133h-528z" />
<glyph unicode="&#x2013;" horiz-adv-x="1058" d="M-88 481l16 127h1024l-16 -127h-1024z" />
<glyph unicode="&#x2014;" horiz-adv-x="2082" d="M203 481l37 127h1513l-37 -127h-1513z" />
<glyph unicode="&#x2018;" horiz-adv-x="618" d="M215 1044l324 437h151l-260 -437h-215z" />
<glyph unicode="&#x2019;" horiz-adv-x="618" d="M244 1044l262 437h213l-324 -437h-151z" />
<glyph unicode="&#x201a;" horiz-adv-x="618" d="M-158 -240l262 435h215l-327 -435h-150z" />
<glyph unicode="&#x201c;" horiz-adv-x="1019" d="M215 1044l326 437h149l-260 -437h-215zM616 1044l322 437h154l-261 -437h-215z" />
<glyph unicode="&#x201d;" horiz-adv-x="1019" d="M244 1044l260 437h215l-324 -437h-151zM645 1044l260 437h215l-325 -437h-150z" />
<glyph unicode="&#x201e;" horiz-adv-x="1013" d="M-158 -240l258 435h213l-321 -435h-150zM242 -240l260 435h213l-322 -435h-151z" />
<glyph unicode="&#x2022;" horiz-adv-x="1058" d="M160 733q0 76 33 148q29 68 88 123q51 47 114 71q61 25 131 25t131 -25q63 -25 115 -71q29 -27 51.5 -58t38.5 -65q31 -68 31 -148q0 -70 -25 -131q-27 -68 -69 -115q-55 -59 -123 -88q-72 -33 -150 -32q-80 0 -147 30q-72 31 -125 90q-45 47 -70 113q-25 61 -24 133z " />
<glyph unicode="&#x2026;" horiz-adv-x="2082" d="M39 0l57 207h203l-57 -207h-203zM721 0l59 207h203l-59 -207h-203zM1405 0l57 207h203l-57 -207h-203z" />
<glyph unicode="&#x202f;" horiz-adv-x="390" />
<glyph unicode="&#x2039;" horiz-adv-x="616" d="M78 565l328 353h147l-315 -379l79 -418h-141z" />
<glyph unicode="&#x203a;" horiz-adv-x="616" d="M-43 121l315 379l-79 418h141l98 -445l-328 -352h-147z" />
<glyph unicode="&#x205f;" horiz-adv-x="487" />
<glyph unicode="&#x20ac;" d="M41 549l65 135h164q2 14 8.5 37.5t13.5 48.5t14 48.5t13 35.5h-186l66 135h170q59 133 116.5 229.5t128 159t164.5 92t226 29.5q119 0 189.5 -37t104.5 -78l-71 -145q-33 49 -93.5 83t-154.5 34t-159.5 -25.5t-113 -74t-83 -116t-72.5 -151.5h551l-66 -135h-536 l-11.5 -34.5t-14.5 -48.5t-13 -49.5t-8 -37.5h495l-65 -135h-455q-6 -35 -10 -82t-4 -100q0 -129 59 -188.5t195 -59.5q100 0 171.5 33.5t125.5 74.5v-157q-59 -41 -145.5 -68t-184.5 -27q-104 0 -180 30t-127.5 84t-76 127t-24.5 159q0 49 5.5 96t11.5 78h-203z" />
<glyph unicode="&#x2122;" horiz-adv-x="1785" d="M109 1389v92h612v-92h-250v-639h-115v639h-247zM801 750v731h174l207 -576l209 576h168v-731h-103v634l-229 -634h-94l-230 634v-634h-102z" />
<glyph unicode="&#x25fc;" horiz-adv-x="1034" d="M0 0v1034h1034v-1034h-1034z" />
<glyph unicode="&#xfb01;" horiz-adv-x="1122" d="M-14 0l266 905h-211l37 127h211l47 152q27 84 57.5 143t71.5 96t97 54.5t134 17.5q41 0 77 -4t77 -14l-41 -125q-45 12 -96 12q-49 0 -82 -13.5t-55.5 -40t-38 -66.5t-31.5 -91l-37 -121h225l-37 -127h-225l-270 -905h-176zM571 0l303 1032h179l-301 -1032h-181z M936 1278l53 176h201l-53 -176h-201z" />
<glyph unicode="&#xfb02;" horiz-adv-x="1122" d="M-14 0l266 905h-211l37 127h211l47 152q27 84 57.5 143t71.5 96t97 54.5t134 17.5q41 0 77 -4t77 -14l-41 -125q-45 12 -96 12q-49 0 -82 -13.5t-55.5 -40t-38 -66.5t-31.5 -91l-37 -121h225l-37 -127h-225l-270 -905h-176zM569 0l437 1481h178l-434 -1481h-181z" />
</font>
</defs>
</svg>
